<svg width="482" height="394" viewBox="0 0 482 394" fill="none" xmlns="http://www.w3.org/2000/svg">
<g clip-path="url(#clip0_55_111)">
<path opacity="0.1" d="M82.7369 393.865C128.431 393.865 165.474 387.553 165.474 379.767C165.474 371.981 128.431 365.669 82.7369 365.669C37.0426 365.669 0 371.981 0 379.767C0 387.553 37.0426 393.865 82.7369 393.865Z" fill="#00C7FA"/>
<path opacity="0.1" d="M398.392 390.527C444.086 390.527 481.129 384.215 481.129 376.429C481.129 368.643 444.086 362.331 398.392 362.331C352.698 362.331 315.655 368.643 315.655 376.429C315.655 384.215 352.698 390.527 398.392 390.527Z" fill="#00C7FA"/>
<path opacity="0.1" d="M128.999 0.216259C107.375 1.3727 85.5245 7.69078 68.6528 21.2719C53.8494 33.1935 43.1736 51.9362 45.7779 70.7682C48.8523 92.9991 68.6857 109.17 76.0427 130.376C80.7765 144.009 80.0385 159.052 76.9406 173.155C74.9473 182.242 71.8823 191.338 65.992 198.54C55.382 211.496 36.235 217.748 31.0216 233.661C25.3522 250.965 39.6385 267.936 53.0597 280.243C63.7732 290.063 74.9944 299.837 88.4955 305.219C98.3675 309.159 109.081 310.574 119.7 311.138C149.025 312.676 178.343 307.992 205.728 297.392C218.848 292.301 231.541 285.847 245.272 282.777C274.536 276.233 304.646 285.668 334.304 290.087C359.728 293.864 385.564 293.94 411.009 290.312C427.021 288.028 443.564 283.905 455.622 273.13C467.844 262.191 473.955 245.258 473.278 228.852C472.601 212.446 465.682 196.651 455.49 183.77C442.327 167.133 424.172 155.296 408.377 141.118C392.294 126.674 378.612 109.761 367.845 91.0153C361.64 80.2031 356.361 68.728 348.322 59.2086C335.785 44.3724 317.601 35.5487 299.432 28.7323C257.518 13.0311 214.044 9.83442 170.344 2.89581C156.688 0.719262 142.834 -0.507688 128.999 0.216259V0.216259Z" fill="#00C7FA"/>
<g opacity="0.7">
<path opacity="0.7" d="M121.539 172.577H211.308V222.741H121.539V172.577Z" fill="#F6F7F9"/>
<path opacity="0.2" d="M138.439 204.191C143.6 204.191 147.784 200.007 147.784 194.845C147.784 189.684 143.6 185.5 138.439 185.5C133.277 185.5 129.093 189.684 129.093 194.845C129.093 200.007 133.277 204.191 138.439 204.191Z" fill="#00C7FA"/>
<path opacity="0.2" d="M159.179 183.77H199.899V186.332H159.179V183.77ZM159.179 190.3H179.925V192.862H159.179V190.3ZM159.179 196.829H192.73V199.391H159.179V196.829ZM159.179 203.359H199.899V205.921H159.179V203.359ZM188.635 212.784H199.904V217.734H188.635V212.784Z" fill="#00C7FA"/>
<path opacity="0.7" d="M197.116 33.9409H286.885V84.1048H197.116V33.9409Z" fill="#F6F7F9"/>
<path opacity="0.2" d="M214.021 65.5549C219.182 65.5549 223.366 61.3707 223.366 56.2093C223.366 51.048 219.182 46.8638 214.021 46.8638C208.859 46.8638 204.675 51.048 204.675 56.2093C204.675 61.3707 208.859 65.5549 214.021 65.5549Z" fill="#00C7FA"/>
<path opacity="0.2" d="M234.761 45.1339H275.481V47.6959H234.761V45.1339ZM234.761 51.6635H255.507V54.2256H234.761V51.6635ZM234.761 58.1932H268.312V60.7552H234.761V58.1932ZM234.761 64.7275H275.481V67.2895H234.761V64.7275ZM264.213 74.1482H275.481V79.0983H264.213V74.1482Z" fill="#00C7FA"/>
<path opacity="0.7" d="M226.995 118.163H316.765V168.327H226.995V118.163Z" fill="#F6F7F9"/>
<path opacity="0.2" d="M243.895 149.782C249.056 149.782 253.241 145.598 253.241 140.436C253.241 135.275 249.056 131.091 243.895 131.091C238.734 131.091 234.55 135.275 234.55 140.436C234.55 145.598 238.734 149.782 243.895 149.782Z" fill="#00C7FA"/>
<path opacity="0.2" d="M264.64 129.361H305.36V131.923H264.64V129.361ZM264.64 135.891H285.386V138.453H264.64V135.891ZM264.64 142.42H298.191V144.982H264.64V142.42ZM264.64 148.95H305.36V151.512H264.64V148.95ZM294.092 158.375H305.36V163.325H294.092V158.375Z" fill="#00C7FA"/>
</g>
<path d="M90.2019 63.7967H241.154V149.091H90.2019V63.7967Z" fill="url(#paint0_linear_55_111)"/>
<path d="M91.269 64.8544H240.101V148.028H91.269V64.8544Z" fill="#F6F7F9"/>
<path opacity="0.2" d="M119.287 117.275C127.844 117.275 134.781 110.338 134.781 101.78C134.781 93.2231 127.844 86.2861 119.287 86.2861C110.73 86.2861 103.792 93.2231 103.792 101.78C103.792 110.338 110.73 117.275 119.287 117.275Z" fill="#00C7FA"/>
<path opacity="0.2" d="M153.684 83.4138H221.199V87.6588H153.684V83.4138ZM153.684 94.2448H188.076V98.4898H153.684V94.2448ZM153.684 105.071H209.31V109.316H153.684V105.071ZM153.684 115.897H221.199V120.142H153.684V115.897Z" fill="#00C7FA"/>
<path d="M202.513 131.523H221.194V139.731H202.513V131.523Z" fill="#00C7FA"/>
<path d="M196.086 179.022H339.663V259.253H196.086V179.022Z" fill="url(#paint1_linear_55_111)"/>
<path d="M197.078 179.572H338.671V258.698H197.078V179.572Z" fill="#F6F7F9"/>
<path opacity="0.2" d="M223.737 229.444C231.879 229.444 238.48 222.844 238.48 214.702C238.48 206.56 231.879 199.96 223.737 199.96C215.595 199.96 208.995 206.56 208.995 214.702C208.995 222.844 215.595 229.444 223.737 229.444Z" fill="#00C7FA"/>
<path opacity="0.2" d="M256.456 197.229H320.685V201.267H256.456V197.229ZM256.456 207.533H289.175V211.571H256.456V207.533ZM256.456 217.833H309.375V221.871H256.456V217.833ZM256.456 228.133H320.685V232.171H256.456V228.133Z" fill="#00C7FA"/>
<path opacity="0.5" d="M302.911 242.997H320.685V250.806H302.911V242.997Z" fill="#00C7FA"/>
<path opacity="0.1" d="M38.9521 135.35L39.3021 135.426C39.1999 135.356 39.0742 135.328 38.9521 135.35V135.35Z" fill="url(#paint2_linear_55_111)"/>
<path d="M111.685 189.961C110.646 182.985 104.31 166.71 104.31 166.71C104.197 166.24 104.074 165.742 103.933 165.262C99.4346 149.801 93.2106 148.433 93.2106 148.433L70.9139 143.68C71.098 143.795 71.2576 143.945 71.384 144.122L71.0314 144.178C70.0082 142.971 69.3322 141.509 69.0759 139.948C69.0335 139.717 68.9959 139.477 68.9677 139.233C70.5702 137.672 71.8202 135.787 72.6337 133.703C73.4472 131.62 73.8054 129.386 73.6843 127.153C73.5632 124.919 72.9655 122.737 71.9315 120.754C70.8974 118.77 69.4509 117.031 67.6891 115.653C67.4587 115.47 67.219 115.296 66.9745 115.122C68.0275 114.008 68.0604 112.452 67.2754 110.891C65.5172 107.238 61.7001 104.93 57.77 103.807C54.7708 102.946 51.5178 102.669 48.5468 103.609C46.8497 104.145 45.3078 105.052 43.7189 105.847C40.7573 107.328 37.4948 108.498 35.2572 110.929C34.7354 111.497 34.2606 112.221 34.411 112.969C34.5285 113.528 34.9657 113.956 35.2525 114.454C35.8871 115.564 35.7226 116.96 35.2948 118.168C34.867 119.376 34.2182 120.518 33.9127 121.741C33.6071 122.963 33.7293 124.439 34.6601 125.323C35.1124 125.677 35.5831 126.006 36.0704 126.31C36.5812 126.742 37.029 127.244 37.4008 127.8L40.0427 131.368C41.276 132.95 42.3766 134.631 43.3334 136.394C43.9868 137.686 44.4992 139.073 45.3783 140.23C45.6369 140.573 45.9316 140.889 46.2574 141.17C46.1728 141.137 46.0835 141.109 45.9988 141.071C46.3881 141.451 46.8507 141.747 47.3583 141.942C47.8658 142.136 48.4078 142.226 48.951 142.204H49.0827C49.2842 142.201 49.4772 142.122 49.6233 141.983V142.453C49.6703 144.169 49.6656 145.993 49.5434 147.704L49.3365 147.601C49.0303 147.447 48.6864 147.384 48.3456 147.42C48.0048 147.456 47.6814 147.589 47.4138 147.803L26.8753 164.256C26.8753 164.256 22.4141 170.367 23.0347 180.898L19.4384 196.702C19.4384 196.702 14.9396 210.114 18.3995 219.69C21.8594 229.266 23.8667 234.733 23.8667 234.733C23.8667 234.733 25.2488 245.611 27.3266 246.485C29.4045 247.36 30.3023 247.858 30.3023 247.858L30.716 250.458C30.716 250.458 30.8524 250.707 31.0968 251.139C32.6105 253.767 38.2094 263.047 41.4671 262.06C41.874 264.578 42.0518 267.129 41.9983 269.68L45.2138 291.304C45.2138 291.304 47.4608 297.185 47.3245 300.264C47.1882 303.343 49.9524 307.725 49.9524 307.725C48.2743 310.794 47.7824 314.372 48.5703 317.78C49.8865 323.529 51.546 350.071 51.546 350.071L53.967 356.502L53.8965 364.023C53.696 365.245 53.1844 366.395 52.411 367.361C50.8502 369.053 50.9537 371.009 47.2399 373.317C43.5261 375.625 41.1287 376.495 41.1287 379.574C41.1244 380 41.0866 380.424 41.0158 380.843C40.668 383.095 39.9957 384.308 46.892 384.966C54.9871 385.732 60.3838 380.449 60.3838 380.449C60.3838 380.449 61.5731 378.291 67.1814 377.421C67.1814 377.421 69.0947 377.318 69.2028 375.621C69.2404 375.038 69.231 373.919 69.1793 372.687C69.09 370.337 68.8643 367.601 68.5682 367.465C68.1968 367.3 67.5386 364.935 67.313 364.08H68.8737C68.8737 364.08 70.3263 353.202 68.8737 346.15C67.4211 339.099 68.7374 334.111 68.7374 334.111L68.46 315.505C68.46 315.505 66.4997 313.516 68.0369 309.897C69.5742 306.277 68.0369 288.347 68.0369 288.347C68.0369 288.347 68.5964 281.917 70.1853 280.412C71.7742 278.908 70.2652 270.987 70.1853 270.573L73.0059 280.069C73.0059 280.069 74.2516 298.953 76.8841 302.375L77.6457 310.921C77.6457 310.921 83.0424 318.791 82.0035 323.036C80.9646 327.281 83.1129 342.601 83.1129 342.601V358.269C83.1129 358.269 80.6872 364.564 84.0813 366.821L85.5433 366.764C85.045 367.234 84.6877 367.888 84.133 368.466C83.4843 369.133 83.1176 371.672 82.9108 373.853C82.7368 375.701 82.6804 377.29 82.6804 377.29C82.6804 377.29 84.133 379.598 86.8314 379.753C89.5297 379.908 98.4568 386.734 98.4568 386.734C98.4568 386.734 107.285 386.734 109.565 386.264L109.702 386.231C110.434 385.997 111.049 385.493 111.422 384.82C111.882 384.042 112.031 383.119 111.84 382.235C111.554 380.886 110.487 379.414 108.113 378.15C102.194 375.024 101.315 372.1 101.315 372.1L97.4367 366.289H97.9914C97.9914 366.289 97.6483 360.131 101.865 353.221L101.592 322.777C101.592 322.777 103.318 312.308 100.347 306.629C100.347 306.629 100.102 300.608 102.091 298.76C104.079 296.913 99.444 278.236 99.444 278.236C99.444 278.236 98.5038 268.213 97.3568 259.065C102.025 263.493 106.872 247.543 107.699 244.708H107.821C107.821 244.708 107.798 244.633 107.765 244.502C107.732 244.37 107.821 244.299 107.821 244.299C107.821 244.276 106.787 240.609 107.544 241.357C108.301 242.104 110.176 239.307 110.176 239.307C110.176 239.307 109.899 224.048 113.152 216.357C116.405 208.666 111.685 189.961 111.685 189.961V189.961ZM97.7752 199.669L97.7987 199.626C98.2688 208.944 97.7047 228.824 97.7047 228.824C97.7047 228.824 97.0654 231.372 96.379 234.371L95.8854 215.483L95.4153 197.694L97.7752 199.669ZM38.2 193.247C38.2 193.247 40.5504 222.666 38.2 226.906C37.5277 228.114 36.9683 230.262 36.5029 232.721C35.7273 230.681 34.0819 225.89 34.6695 223.352C35.4311 220.061 33.1464 211.444 33.1464 211.242C33.1464 211.04 32.9396 206.452 34.599 202.926C36.2585 199.401 35.1537 197.896 35.1537 197.896C35.1537 197.896 36.5405 192.152 38.2 193.247V193.247Z" fill="url(#paint3_linear_55_111)"/>
<path d="M43.9257 259.502C41.8808 268.509 33.7293 254.886 31.8724 251.619L31.4963 250.942L32.3801 246.8L37.0529 244.896C37.791 245.282 38.49 245.739 39.1401 246.26C41.7115 248.253 45.5052 252.526 43.9257 259.502ZM107.154 244.76L107.102 244.962C107.102 245.023 107.06 245.094 107.036 245.183C106.237 248.004 101.484 263.827 96.8961 259.432C91.8754 254.609 94.3152 243.533 94.3152 243.533H94.3623L104.925 242.452L107.017 244.605L107.154 244.76Z" fill="#EFB7B9"/>
<path d="M101.042 322.66L101.31 352.877C97.1736 359.741 97.5073 365.852 97.5073 365.852L83.8746 366.393C80.5463 364.155 82.9344 357.907 82.9344 357.907V342.352C82.9344 342.352 80.8048 327.149 81.8202 322.918C82.8357 318.687 77.5424 310.898 77.5424 310.898L76.7996 302.413C74.2141 299.019 72.9918 280.271 72.9918 280.271L70.2136 270.869C70.2841 271.278 71.7273 279.181 70.2136 280.633C68.6999 282.086 68.1075 288.512 68.1075 288.512C68.1075 288.512 69.6025 306.305 68.1075 309.901C66.6126 313.497 68.5118 315.542 68.5118 315.542L68.7892 334.012C68.7892 334.012 67.4964 338.972 68.9208 345.967C70.3452 352.962 68.9208 363.76 68.9208 363.76H54.2538L54.3196 356.239L51.9457 349.855C51.9457 349.855 50.3144 323.506 49.0264 317.804C48.2522 314.421 48.7333 310.873 50.3802 307.819C50.3802 307.819 47.6678 303.47 47.8041 300.415C47.9404 297.359 45.731 291.521 45.731 291.521L42.5719 270.061C42.6609 265.932 42.1349 261.812 41.0112 257.838C39.1731 251.727 36.4607 243.712 36.4607 243.712L39.5257 243.984L55.0013 245.362C55.0013 245.362 92.6089 242.833 94.306 244.934C94.6632 245.62 94.9047 246.36 95.0205 247.125C96.7082 254.717 98.9411 278.485 98.9411 278.485C98.9411 278.485 103.492 297.025 101.536 298.859C99.5805 300.692 99.8249 306.667 99.8249 306.667C102.74 312.271 101.042 322.66 101.042 322.66V322.66Z" fill="#444053"/>
<path d="M69.2403 375.202C69.1322 376.885 67.2518 376.989 67.2518 376.989C61.7517 377.854 60.5858 379.997 60.5858 379.997C60.5858 379.997 55.2878 385.239 47.3526 384.501C40.588 383.852 41.2414 382.62 41.5893 380.411C41.6585 379.994 41.6947 379.573 41.6974 379.151C41.6974 376.095 44.0479 375.226 47.7099 372.936C51.372 370.647 51.2732 368.705 52.801 367.027C54.3289 365.349 54.484 362.091 54.484 362.091C56.2139 359.083 60.5952 362.561 60.5952 362.561C60.7974 363.628 67.3176 363.502 67.3176 363.502C67.3176 363.502 68.1826 366.966 68.6245 367.168C68.9159 367.305 69.1369 370.022 69.2262 372.339C69.2685 373.515 69.2732 374.629 69.2403 375.202V375.202Z" fill="#B07473"/>
<path opacity="0.1" d="M69.2403 375.202C69.1322 376.885 67.2518 376.989 67.2518 376.989C61.7517 377.854 60.5858 379.997 60.5858 379.997C60.5858 379.997 55.2879 385.239 47.3526 384.501C40.588 383.852 41.2414 382.62 41.5893 380.411C44.612 381.163 50.3942 382.207 53.7694 380.373C58.4704 377.825 61.8222 376.044 61.8222 376.044L69.2168 372.278C69.2685 373.515 69.2732 374.629 69.2403 375.202V375.202Z" fill="black"/>
<path d="M110.693 384.27C110.332 384.941 109.726 385.447 109.001 385.681C108.958 385.696 108.914 385.707 108.869 385.714C106.627 386.184 97.9679 386.184 97.9679 386.184C97.9679 386.184 89.1912 379.386 86.5586 379.231C83.9261 379.076 82.4829 376.787 82.4829 376.787C82.4829 376.787 82.5346 375.207 82.7038 373.374C82.9107 371.206 83.2727 368.673 83.9073 368.024C85.0825 366.802 85.3176 365.123 87.983 366.191C87.983 366.191 91.7438 359.558 96.1815 364.682L100.77 371.644C100.77 371.644 101.635 374.544 107.445 377.651C109.772 378.897 110.82 380.364 111.098 381.704C111.288 382.58 111.144 383.495 110.693 384.27V384.27Z" fill="#B07473"/>
<path opacity="0.1" d="M110.693 384.27C110.176 384.708 109.598 385.178 109.001 385.681C108.958 385.696 108.914 385.707 108.869 385.714C106.627 386.184 97.9679 386.184 97.9679 386.184C97.9679 386.184 89.1912 379.386 86.5586 379.231C83.9261 379.076 82.4829 376.786 82.4829 376.786C82.4829 376.786 82.5346 375.207 82.7038 373.374C85.3975 374.182 89.4873 375.606 90.5827 377.134C92.2609 379.485 97.3614 382.733 97.3614 382.733C97.3614 382.733 106.871 381.821 111.098 381.694C111.291 382.573 111.147 383.493 110.693 384.27V384.27Z" fill="black"/>
<path d="M73.6781 147.272L61.1453 160.514C61.1453 160.514 45.9659 159.395 48.6173 154.911C49.9664 152.631 50.178 147.859 50.0605 143.694C49.9476 139.684 49.534 136.271 49.534 136.271C49.534 136.271 70.8246 125.675 69.1934 135.557C68.8471 137.42 68.8265 139.328 69.1322 141.198C70.0583 146.19 73.6781 147.272 73.6781 147.272V147.272Z" fill="#EFB7B9"/>
<path opacity="0.1" d="M69.1887 135.557C68.8425 137.42 68.8218 139.328 69.1276 141.198C67.6717 142.673 65.9368 143.844 64.0241 144.642C62.1113 145.44 60.0589 145.85 57.9863 145.847C55.0905 145.847 51.9926 143.497 49.6656 142.11C49.5528 138.1 49.5293 136.271 49.5293 136.271C49.5293 136.271 70.8199 125.675 69.1887 135.557Z" fill="black"/>
<path d="M73.678 129.342C73.6792 132.897 72.4731 136.348 70.2571 139.128C68.0411 141.908 64.9467 143.853 61.4807 144.645C58.0147 145.437 54.3825 145.028 51.1792 143.486C47.9758 141.944 45.3912 139.359 43.8485 136.156C42.3059 132.953 41.8968 129.321 42.6881 125.855C43.4794 122.389 45.4244 119.294 48.2043 117.078C50.9843 114.861 54.4345 113.655 57.9897 113.656C61.545 113.656 64.9947 114.865 67.7736 117.082C69.615 118.551 71.1018 120.416 72.124 122.539C73.1461 124.661 73.6773 126.986 73.678 129.342V129.342Z" fill="#EFB7B9"/>
<path opacity="0.1" d="M95.0159 247.087C91.1094 256.386 65.9781 256.578 65.9781 256.578V246.443L64.4549 246.344C65.1131 249.245 63.5148 256.324 63.5148 256.324C43.6532 259.145 38.8159 247.82 38.8159 247.82L39.5023 243.947L54.9778 245.324C54.9778 245.324 92.5855 242.795 94.2825 244.896C94.6463 245.581 94.8941 246.321 95.0159 247.087V247.087Z" fill="black"/>
<path d="M65.9781 255.356V245.216L64.4549 245.122C65.1131 248.023 63.5148 255.102 63.5148 255.102C48.5704 257.208 42.1254 251.341 39.8548 248.286C39.4487 247.761 39.1004 247.193 38.8159 246.593L44.8755 212.469L46.2857 162.249L48.4717 153.439L48.9794 149.208V149.161L49.0311 149.185L50.573 149.848L59.8245 153.844L70.3875 145.913L70.5427 145.796L71.0645 145.401L71.9342 146.101L74.0919 147.831L81.0211 192.556C81.0211 192.556 93.0368 226.995 95.265 240.896C95.3543 241.451 95.4296 241.968 95.486 242.452C96.948 255.121 65.9781 255.356 65.9781 255.356V255.356Z" fill="#E1E7EF"/>
<path d="M60.9855 155.705C61.4787 155.705 61.8786 155.305 61.8786 154.812C61.8786 154.319 61.4787 153.919 60.9855 153.919C60.4922 153.919 60.0923 154.319 60.0923 154.812C60.0923 155.305 60.4922 155.705 60.9855 155.705Z" fill="#67647E"/>
<path d="M61.3993 163.852C61.8926 163.852 62.2925 163.452 62.2925 162.959C62.2925 162.465 61.8926 162.066 61.3993 162.066C60.906 162.066 60.5061 162.465 60.5061 162.959C60.5061 163.452 60.906 163.852 61.3993 163.852Z" fill="#67647E"/>
<path d="M62.2877 177.047C62.781 177.047 63.1809 176.648 63.1809 176.154C63.1809 175.661 62.781 175.261 62.2877 175.261C61.7944 175.261 61.3945 175.661 61.3945 176.154C61.3945 176.648 61.7944 177.047 62.2877 177.047Z" fill="#67647E"/>
<path d="M63.7684 191.254C64.2617 191.254 64.6616 190.854 64.6616 190.361C64.6616 189.867 64.2617 189.467 63.7684 189.467C63.2751 189.467 62.8752 189.867 62.8752 190.361C62.8752 190.854 63.2751 191.254 63.7684 191.254Z" fill="#67647E"/>
<path d="M64.6568 204.6C65.1501 204.6 65.55 204.2 65.55 203.707C65.55 203.213 65.1501 202.813 64.6568 202.813C64.1636 202.813 63.7637 203.213 63.7637 203.707C63.7637 204.2 64.1636 204.6 64.6568 204.6Z" fill="#67647E"/>
<path d="M65.5502 218.811C66.0435 218.811 66.4433 218.411 66.4433 217.918C66.4433 217.424 66.0435 217.024 65.5502 217.024C65.0569 217.024 64.657 217.424 64.657 217.918C64.657 218.411 65.0569 218.811 65.5502 218.811Z" fill="#67647E"/>
<path d="M65.193 232.871C65.6863 232.871 66.0862 232.471 66.0862 231.978C66.0862 231.485 65.6863 231.085 65.193 231.085C64.6997 231.085 64.2998 231.485 64.2998 231.978C64.2998 232.471 64.6997 232.871 65.193 232.871Z" fill="#67647E"/>
<path opacity="0.1" d="M49.6091 217.433C49.6091 217.433 48.6125 230.502 46.7885 234.3C44.9646 238.099 44.1372 248.765 44.1372 248.765L39.9063 248.295C39.5002 247.77 39.1519 247.203 38.8674 246.603L44.927 212.479L46.3373 162.258L48.5232 153.449L49.0309 149.218C49.0474 149.205 49.0668 149.197 49.0873 149.194C49.3246 149.082 49.5845 149.026 49.8469 149.03C50.1093 149.034 50.3673 149.098 50.601 149.218L50.8079 149.321C50.7468 149.495 50.6856 149.674 50.6292 149.857C48.9745 155.052 48.354 164.632 48.354 164.632C48.354 164.632 50.7327 182.153 51.0006 190.304C51.2686 198.456 49.6091 217.433 49.6091 217.433V217.433Z" fill="black"/>
<path opacity="0.1" d="M39.1401 246.26C39.0935 246.368 39.0401 246.473 38.9803 246.575C37.3302 249.362 33.1464 251.135 31.8724 251.619L31.4963 250.942L32.3801 246.8L37.0529 244.896C37.791 245.282 38.49 245.739 39.1401 246.26V246.26Z" fill="black"/>
<path d="M27.8298 179.567L23.9609 181.889L20.4258 197.577C20.4258 197.577 16.0116 210.89 19.4103 220.395C22.8091 229.9 24.7882 235.321 24.7882 235.321C24.7882 235.321 26.1468 246.133 28.1823 247.002C30.2179 247.872 31.1063 248.361 31.1063 248.361L31.5106 250.942C31.5106 250.942 37.0389 249.061 38.9945 245.771C40.9501 242.48 37.5561 234.249 37.5561 234.249C37.5561 234.249 34.6368 227.254 35.3842 223.996C36.1317 220.738 33.8893 212.178 33.8893 211.976C33.8893 211.773 33.6872 207.218 35.2996 203.721C36.912 200.223 35.8449 198.733 35.8449 198.733L34.8248 188.748L27.8298 179.567Z" fill="#67647E"/>
<path opacity="0.1" d="M95.3355 244.149C95.3355 244.149 85.0827 248.023 81.8202 244.619C78.5578 241.216 78.9009 225.345 78.9009 225.345C78.9009 225.345 75.7795 196.006 73.8051 191.188C71.8307 186.369 72.8649 151.592 72.8649 151.592C72.8649 151.592 71.5298 147.102 70.3875 145.913C70.3157 145.835 70.2334 145.767 70.1431 145.711L70.5426 145.796L71.9529 146.101L74.1107 147.831L81.0399 192.556C81.0399 192.556 93.0555 226.995 95.2838 240.896L95.3355 244.149Z" fill="black"/>
<path opacity="0.1" d="M107.154 245.169H107.036C105.748 245.334 94.3436 246.711 94.3013 244.342C94.3015 244.067 94.3172 243.792 94.3483 243.519L104.911 242.438L107.003 244.591C107.041 244.732 107.074 244.854 107.102 244.948L107.154 245.169Z" fill="black"/>
<path d="M96.2427 163.852L103.741 167.758C103.741 167.758 109.96 183.911 110.98 190.84C110.98 190.84 115.597 209.395 112.39 217.024C109.184 224.654 109.471 239.805 109.471 239.805C109.471 239.805 107.638 242.588 106.89 241.841C106.143 241.093 107.163 244.76 107.163 244.76C107.163 244.76 94.3623 246.462 94.3012 243.942C94.2401 241.422 97.2393 229.407 97.2393 229.407C97.2393 229.407 98.0526 200.816 96.8961 196.336C95.7397 191.856 96.2427 163.852 96.2427 163.852V163.852Z" fill="#67647E"/>
<path opacity="0.1" d="M73.8755 194.305C73.8755 194.305 69.6446 204.623 68.3049 205.305C66.9651 205.987 68.5775 208.699 68.5775 208.699C68.5775 208.699 76.2542 197.971 73.8755 194.305V194.305ZM71.3652 158.103C71.4122 157.905 66.3352 163.081 64.9813 163.852C63.6274 164.623 69.9173 163.81 71.3652 158.103ZM57.2247 193.487C57.2247 193.487 49.4822 198.498 50.4976 200.472C51.513 202.447 57.2247 193.487 57.2247 193.487ZM71.2947 266.563C71.2947 266.563 77.876 270.794 88.1382 271.861L71.2947 266.563ZM55.4712 276.75C55.4712 276.75 61.5825 284.422 64.3701 284.629C67.1578 284.836 55.4712 276.75 55.4712 276.75ZM64.027 306.836C63.7543 306.973 60.5624 313.761 57.3046 313.968C54.0469 314.174 64.027 306.836 64.027 306.836ZM92.3503 321.705C92.3503 321.705 98.4051 320.352 99.7496 324.695C99.7496 324.695 99.3453 323.337 92.3503 321.705ZM88.2745 346.564C88.2745 346.564 95.608 345.069 97.1687 347.109C98.7295 349.15 88.2745 346.564 88.2745 346.564V346.564ZM67.5151 350.029C67.5151 350.094 60.0453 351.524 60.3414 352.473C60.6376 353.423 68.3049 353.286 68.5775 351.792C68.63 351.606 68.6438 351.411 68.6182 351.22C68.5925 351.029 68.5279 350.845 68.4283 350.68C68.3287 350.515 68.1963 350.372 68.0392 350.26C67.8822 350.148 67.7038 350.069 67.5151 350.029ZM85.83 356.478C85.83 356.478 98.0995 354.983 97.3286 357.564C96.5576 360.145 85.83 356.478 85.83 356.478ZM21.582 205.305C21.6525 205.507 29.663 206.593 30.7489 209.174C30.7489 209.174 22.8748 205.507 21.6525 205.507L21.582 205.305ZM32.8549 226.29C32.8549 226.29 26.1984 228.396 26.6685 231.588C27.1386 234.78 25.9962 230.098 32.8549 226.29ZM29.7523 242.452C29.7523 242.452 32.178 239.124 34.4862 239.735C36.7943 240.346 29.7523 242.452 29.7523 242.452ZM67.7689 117.082C67.5343 117.308 67.2721 117.504 66.9886 117.665C65.0565 118.784 64.5394 120.486 63.6133 122.493C62.7671 124.312 61.8316 126.254 60.1158 127.269C57.9063 128.599 54.9917 128.111 52.693 129.276C51.6742 129.81 50.8376 130.636 50.29 131.647C49.7424 132.658 49.5086 133.81 49.6185 134.955C49.768 135.838 49.988 136.707 50.2767 137.555C50.7953 139.389 51.0315 141.291 50.9771 143.196C50.9841 143.254 50.9841 143.312 50.9771 143.37C49.0078 142.387 47.2672 141.001 45.8684 139.302C44.4696 137.603 43.4438 135.629 42.8577 133.508C42.2716 131.386 42.1382 129.165 42.4664 126.989C42.7945 124.813 43.5767 122.73 44.7622 120.876C45.9478 119.022 47.5101 117.438 49.3477 116.226C51.1853 115.015 53.2572 114.204 55.4286 113.846C57.6001 113.488 59.8226 113.59 61.9519 114.147C64.0811 114.704 66.0695 115.702 67.7877 117.077L67.7689 117.082Z" fill="black"/>
<path d="M67.36 112.362C65.6348 108.738 61.8881 106.449 58.0333 105.311C55.0905 104.46 51.8986 104.183 48.9793 105.118C47.3151 105.649 45.7967 106.528 44.2407 107.337C41.3308 108.808 38.1295 109.97 35.9435 112.386C35.4358 112.945 34.9657 113.669 35.1162 114.412C35.229 114.967 35.6615 115.39 35.9388 115.883C36.5641 116.983 36.4089 118.37 35.9811 119.569C35.5534 120.768 34.9281 121.886 34.6273 123.118C34.3264 124.35 34.4439 125.793 35.3559 126.672C35.7965 127.021 36.2547 127.347 36.7286 127.65C37.2268 128.083 37.6648 128.581 38.0308 129.131L40.621 132.67C41.8392 134.241 42.9242 135.911 43.8646 137.663C44.5134 138.946 45.0117 140.319 45.872 141.466C46.7322 142.613 48.0814 143.534 49.5105 143.407C49.6209 143.411 49.7306 143.388 49.8304 143.341C49.9302 143.293 50.0172 143.223 50.084 143.135C50.1402 143.023 50.1661 142.898 50.1592 142.773C50.2177 140.868 49.9814 138.965 49.4588 137.132C49.1701 136.284 48.9501 135.415 48.8006 134.532C48.6914 133.387 48.9254 132.236 49.473 131.224C50.0205 130.213 50.8567 129.388 51.8751 128.853C54.1785 127.692 57.0931 128.181 59.3026 126.851C61.0184 125.812 61.9539 123.889 62.8001 122.07C63.7403 120.081 64.2433 118.361 66.1754 117.242C68.1075 116.123 68.3143 114.266 67.36 112.362Z" fill="#585268"/>
<path opacity="0.1" d="M60.3321 368.79C60.3321 368.79 62.7202 371.846 62.1091 373.576C61.498 375.306 60.3321 368.79 60.3321 368.79ZM92.8017 376.429C92.8017 376.429 93.3329 372.33 95.4718 372.292C97.6107 372.255 97.7142 372.071 99.3454 372.697C100.977 373.322 102.504 374.3 102.02 374.45C101.536 374.601 99.1997 372.1 96.8492 373.374C95.3559 374.186 93.9917 375.215 92.8017 376.429V376.429ZM53.1726 158.963L59.8667 154.262C59.8667 154.262 50.037 148.452 48.8665 149.27C47.696 150.087 46.8921 157.421 46.8921 157.421L53.1726 158.963Z" fill="black"/>
<path d="M53.1444 158.657L59.8667 153.844C59.8667 153.844 50.037 148.038 48.8665 148.851C47.696 149.664 46.8921 157.412 46.8921 157.412L53.1444 158.657Z" fill="#E1E7EF"/>
<path opacity="0.03" d="M53.1444 158.657L59.8667 153.844C59.8667 153.844 50.037 148.038 48.8665 148.851C47.696 149.664 46.8921 157.412 46.8921 157.412L53.1444 158.657Z" fill="black"/>
<path d="M49.976 148.908L49.7738 148.804C49.4749 148.652 49.1382 148.589 48.8044 148.624C48.4706 148.659 48.1542 148.79 47.8935 149.002L27.7358 165.356C27.7358 165.356 23.3545 171.416 23.975 181.875L35.859 198.719C35.859 198.719 37.2176 193.012 38.8488 194.098C38.8488 194.098 41.157 223.3 38.8488 227.512C36.5407 231.724 35.5205 247.477 35.5205 247.477L43.3288 248.361C43.3288 248.361 44.1421 237.699 45.9755 233.896C47.8089 230.093 48.7961 217.024 48.7961 217.024C48.7961 217.024 50.4461 198.037 50.1734 189.881C49.9008 181.725 47.5268 164.214 47.5268 164.214C47.5268 164.214 48.1896 153.947 49.976 148.908V148.908Z" fill="#67647E"/>
<path opacity="0.1" d="M70.0536 155.982L61.6812 152.88C61.6812 152.88 72.3476 141.203 73.6733 147.681L70.0536 155.982Z" fill="black"/>
<path d="M70.0536 155.564L61.6812 152.466C61.6812 152.466 72.3476 140.784 73.6733 147.262L70.0536 155.564Z" fill="#E1E7EF"/>
<path opacity="0.03" d="M70.0536 155.564L61.6812 152.466C61.6812 152.466 72.3476 140.784 73.6733 147.262L70.0536 155.564Z" fill="black"/>
<path opacity="0.1" d="M69.7856 145.64C69.9056 145.619 70.0292 145.644 70.1309 145.711L69.7856 145.64Z" fill="black"/>
<path d="M70.5989 144.822L92.825 149.617C92.825 149.617 98.9363 150.976 103.35 166.32C107.765 181.664 97.305 200.472 97.305 200.472L94.9969 198.512L96.1533 243.336C96.1533 243.336 85.8958 247.205 82.638 243.806C79.3803 240.407 79.714 224.532 79.714 224.532C79.714 224.532 76.5926 195.184 74.6182 190.351C72.6438 185.519 73.678 150.755 73.678 150.755C73.678 150.755 71.8399 144.554 70.5989 144.822V144.822Z" fill="#67647E"/>
<path opacity="0.1" d="M90.9213 173.385C90.6064 173.677 90.2444 187.239 91.603 197.562C92.4366 203.849 93.7233 210.068 95.453 216.169L93.4363 174.8C93.4363 174.8 91.8709 172.488 90.9213 173.385ZM88.2042 161.704C88.7495 162.042 91.1282 167.678 90.0375 169.991C88.9469 172.304 88.2042 161.704 88.2042 161.704ZM67.2285 112.362C66.14 110.213 64.4407 108.434 62.3442 107.248C63.9008 108.358 65.1588 109.835 66.0062 111.549C66.9464 113.453 66.6832 115.362 64.8169 116.443C62.9506 117.524 62.3677 119.263 61.4463 121.271C60.6001 123.09 59.6599 125.031 57.9441 126.047C55.7346 127.382 52.8247 126.893 50.5213 128.049C49.5025 128.585 48.6661 129.411 48.1186 130.423C47.5711 131.435 47.3372 132.587 47.4469 133.733C47.594 134.616 47.8142 135.486 48.105 136.333C48.6267 138.166 48.8614 140.069 48.8007 141.974C48.8089 142.098 48.7846 142.223 48.7302 142.336C48.6634 142.424 48.5764 142.494 48.4766 142.542C48.3768 142.589 48.2671 142.612 48.1567 142.608C47.5813 142.653 47.0041 142.546 46.4832 142.298C46.863 142.674 47.3161 142.967 47.8143 143.161C48.3124 143.354 48.845 143.443 49.3789 143.422C49.4894 143.425 49.5991 143.402 49.6989 143.355C49.7987 143.308 49.8856 143.237 49.9525 143.149C50.0065 143.036 50.0323 142.912 50.0277 142.787C50.0838 140.882 49.8476 138.979 49.3272 137.146C49.0364 136.299 48.8163 135.429 48.6691 134.546C48.5598 133.401 48.7939 132.25 49.3414 131.239C49.8889 130.227 50.7252 129.402 51.7435 128.867C54.047 127.706 56.9569 128.195 59.1663 126.865C60.8822 125.826 61.8224 123.903 62.6686 122.084C63.6087 120.095 64.107 118.375 66.0391 117.256C67.9712 116.137 68.1781 114.266 67.2285 112.362V112.362Z" fill="black"/>
<path opacity="0.1" d="M455.161 360.733C465.806 360.733 474.435 359.548 474.435 358.086C474.435 356.624 465.806 355.439 455.161 355.439C444.516 355.439 435.887 356.624 435.887 358.086C435.887 359.548 444.516 360.733 455.161 360.733Z" fill="#00C7FA"/>
<path opacity="0.1" d="M304.067 384.802C311.633 384.802 317.766 383.96 317.766 382.921C317.766 381.883 311.633 381.041 304.067 381.041C296.502 381.041 290.369 381.883 290.369 382.921C290.369 383.96 296.502 384.802 304.067 384.802Z" fill="#00C7FA"/>
<path opacity="0.1" d="M181.494 370.863C189.06 370.863 195.193 370.021 195.193 368.983C195.193 367.944 189.06 367.103 181.494 367.103C173.929 367.103 167.796 367.944 167.796 368.983C167.796 370.021 173.929 370.863 181.494 370.863Z" fill="#00C7FA"/>
<path d="M189.04 364.705C189.903 364.002 190.531 363.052 190.84 361.983C191.075 360.907 190.614 359.609 189.58 359.214C188.424 358.772 187.187 359.576 186.252 360.385C185.317 361.193 184.24 362.119 183.018 361.946C183.648 361.373 184.119 360.648 184.386 359.84C184.653 359.032 184.706 358.169 184.541 357.334C184.485 356.989 184.339 356.664 184.118 356.394C183.474 355.707 182.308 356.004 181.542 356.544C179.097 358.26 178.415 361.584 178.401 364.569C178.157 363.492 178.364 362.369 178.354 361.278C178.345 360.187 178.049 358.928 177.113 358.354C176.538 358.036 175.89 357.874 175.233 357.884C174.138 357.842 172.911 357.954 172.163 358.758C171.223 359.755 171.472 361.428 172.281 362.519C173.089 363.61 174.326 364.31 175.463 365.067C176.373 365.61 177.149 366.35 177.734 367.234C177.804 367.358 177.861 367.488 177.903 367.624H184.795C186.333 366.844 187.761 365.863 189.04 364.705V364.705ZM462.979 354.786C463.847 354.084 464.482 353.135 464.798 352.064C465.033 350.988 464.572 349.714 463.538 349.295C462.382 348.853 461.145 349.657 460.21 350.466C459.274 351.274 458.198 352.2 456.971 352.027C457.603 351.456 458.075 350.731 458.342 349.922C458.609 349.114 458.661 348.25 458.494 347.415C458.443 347.068 458.297 346.743 458.071 346.475C457.431 345.788 456.266 346.084 455.499 346.625C453.055 348.341 452.373 351.665 452.359 354.65C452.11 353.573 452.322 352.45 452.312 351.359C452.303 350.268 452.002 349.009 451.071 348.435C450.496 348.117 449.848 347.955 449.191 347.965C448.091 347.923 446.868 348.035 446.116 348.839C445.176 349.836 445.425 351.509 446.238 352.6C447.052 353.691 448.283 354.391 449.421 355.148C450.331 355.691 451.107 356.431 451.692 357.315C451.76 357.44 451.817 357.57 451.861 357.705H458.748C460.282 356.925 461.705 355.943 462.979 354.786V354.786ZM307.786 376.763C308.649 376.059 309.278 375.11 309.591 374.041C309.821 372.96 309.361 371.691 308.331 371.272C307.175 370.83 305.938 371.63 305.003 372.443C304.067 373.256 302.991 374.173 301.764 374.004C302.395 373.432 302.867 372.707 303.134 371.899C303.401 371.09 303.454 370.227 303.287 369.392C303.234 369.046 303.088 368.721 302.864 368.452C302.22 367.765 301.059 368.061 300.288 368.602C297.843 370.323 297.162 373.642 297.148 376.631C296.903 375.555 297.11 374.431 297.105 373.341C297.101 372.25 296.795 370.99 295.864 370.417C295.289 370.1 294.641 369.938 293.984 369.947C292.884 369.909 291.662 370.017 290.909 370.821C289.969 371.822 290.218 373.496 291.032 374.582C291.845 375.668 293.077 376.368 294.209 377.13C295.132 377.679 295.916 378.431 296.504 379.33C296.571 379.453 296.628 379.582 296.673 379.715H303.555C305.092 378.926 306.515 377.933 307.786 376.763V376.763Z" fill="#00C7FA"/>
<path d="M445.928 162.258C439.761 162.136 434.317 157.764 431.233 152.461C430.425 151.195 429.917 149.761 429.748 148.268C429.769 147.928 429.826 147.591 429.917 147.262C430.115 146.765 430.272 146.252 430.387 145.73C430.413 145.521 430.413 145.309 430.387 145.1V145.072C430.537 143.934 429.87 142.839 429.033 142.054C428.196 141.268 427.176 140.7 426.316 139.943C423.664 137.616 422.861 133.883 422.809 130.329V130.141C422.837 128.623 422.959 127.095 422.945 125.572C422.966 124.707 422.929 123.842 422.832 122.982C422.579 120.829 421.761 118.638 420.068 117.265C415.654 113.688 408.231 117.411 403.667 114.026C402.553 113.204 401.655 111.977 400.31 111.676C399.29 111.432 398.232 111.761 397.24 112.09C393.875 113.199 390.123 114.661 388.807 117.933C388.055 119.813 388.266 121.924 387.575 123.814C387.105 125.078 386.273 126.164 385.653 127.368C385.141 128.27 384.892 129.298 384.933 130.334C384.881 130.871 384.957 131.412 385.154 131.914C385.387 132.513 385.761 133.047 386.245 133.47C386.068 133.842 385.847 134.193 385.587 134.513C384.726 135.566 383.406 136.318 382.512 137.334C380.858 139.252 380.919 141.861 381.737 144.117C382.555 146.374 384.021 148.428 385.027 150.623C385.465 151.564 385.817 152.645 385.361 153.594C385.046 154.253 384.388 154.751 383.876 155.32C383.125 156.162 382.655 157.217 382.531 158.338C372.457 160.636 372.452 168.727 372.452 168.727L367.018 182.425C367.018 182.425 366.148 184.729 365.138 187.77L358.697 186.619L363.144 194.112C362.294 197.163 361.696 199.993 361.894 201.413C361.894 201.413 359.896 210.814 363.45 212.455L371.301 215.986C371.639 216.191 372.005 216.349 372.386 216.456L372.706 216.597C372.82 216.653 372.946 216.682 373.073 216.682C373.2 216.682 373.325 216.653 373.439 216.597H373.566C373.726 216.613 373.887 216.59 374.036 216.531C374.213 216.439 374.351 216.287 374.427 216.103C374.428 216.089 374.428 216.075 374.427 216.061L376.777 215.379L378.77 217.73C379.668 218.359 380.547 218.91 381.408 219.403L378.343 250.053C378.343 250.053 377.844 290.792 376.345 300.067C375.785 303.503 375.781 305.844 375.992 307.438L375.936 307.541C376.307 310.16 377.271 310.677 377.271 310.677V310.639L377.327 310.677C377.781 309.488 378.32 308.333 378.94 307.222V307.889C378.911 311.349 378.803 316.186 378.469 319.331C377.858 324.681 380.026 342.404 380.026 342.404L380.773 358.528C380.894 361.264 380.26 363.98 378.94 366.379C377.167 369.599 374.859 374.126 374.709 376.133C374.702 376.243 374.702 376.353 374.709 376.462L370.779 381.036C370.779 381.036 369.274 383.354 372.659 384.289C374.478 384.797 377.623 384.289 380.143 383.692C381.245 383.439 382.229 382.821 382.934 381.937C383.639 381.054 384.024 379.957 384.026 378.827C384.675 376.606 385.766 374.538 387.232 372.748L387.867 376.457L392.098 377.506L392.638 367.338C392.858 366.765 392.957 366.154 392.93 365.542C393.762 358.312 390.969 358.96 390.969 358.96C391.04 359.029 391.088 359.118 391.106 359.214C391.059 359.134 391.012 359.05 390.969 358.965C389.253 355.58 390.095 350.033 390.095 350.033C390.095 350.033 392.319 333.918 393.099 329.664C393.649 326.66 393.423 316.816 393.24 311.302C393.24 311.072 393.24 310.832 393.216 310.639C399.765 310.555 407.789 310.329 413.43 309.784V310.451L412.387 348.529C412.317 350.955 411.825 353.351 410.934 355.609C410.934 355.651 410.897 355.693 410.883 355.736C409.634 358.917 408.923 362.283 408.777 365.697L408.306 377.797V378.131C407.465 378.455 406.139 379.391 406.102 382.103C406.045 386.076 413.045 384.75 413.045 384.75C420.045 384.75 420.096 377.463 420.096 377.463C420.096 377.463 420.322 370.783 420.651 366.313C420.98 361.842 419.598 362.829 419.598 362.829L419.495 375.522V375.621V364.475L419.603 362.858V362.811L419.626 362.467L420.496 349.352C420.496 349.352 426.941 327.492 427.942 323.299C428.652 320.323 428.356 311.344 428.121 306.376C428.121 306.145 428.121 305.929 428.093 305.717C430.086 305.539 431.854 305.52 432.563 305.52H432.888C432.888 305.52 432.554 270.413 431.722 257.166C430.89 243.919 429.555 231.828 426.217 228.184C424.205 225.984 421.399 219.187 419.49 214.152C423.47 215.876 427.601 217.229 431.83 218.195C442.388 220.404 440.945 211.238 440.945 211.238L439.873 193.905H439.944C439.905 189.364 439.516 184.833 438.778 180.352C438.223 176.916 437.368 173.362 436.061 170.48C437.208 170.043 438.336 169.54 439.446 169.07C442.313 167.805 445.557 166.01 445.961 162.916H445.82C445.873 162.7 445.909 162.48 445.928 162.258V162.258ZM380.482 187.333C380.51 189.124 380.439 192.227 380.336 195.663L376.984 191.188L380.345 185.735L380.482 187.333ZM426.814 203.18L421.229 201.384C422.221 199.84 423.378 198.409 424.68 197.116L425.15 196.646L424.976 196.683L425.249 196.439L425.409 196.401L425.15 196.646L425.456 196.585C425.793 197.988 426.444 199.296 427.359 200.411C429.353 202.63 426.795 203.18 426.795 203.18H426.814Z" fill="url(#paint4_linear_55_111)"/>
<path d="M392.868 364.301L392.21 376.683L388.045 375.644L387.166 370.492L392.868 364.301Z" fill="#A27772"/>
<path opacity="0.1" d="M392.868 364.301L392.21 376.683L388.045 375.644L387.166 370.492L392.868 364.301Z" fill="black"/>
<path d="M408.156 378.328L414.512 379.645L419.213 375.48V363.751L419.316 362.148V362.101L419.34 361.762L420.195 348.741C420.195 348.741 426.551 327.036 427.538 322.885C428.239 319.928 427.947 311.011 427.717 306.084C427.623 304.063 427.538 302.713 427.538 302.713L413.51 299.315L413.214 310.127L412.189 347.923C412.12 350.331 411.633 352.709 410.751 354.951L410.704 355.077C409.482 358.244 408.795 361.591 408.668 364.982L408.198 376.993V377.327L408.156 378.328Z" fill="#CC818C"/>
<path opacity="0.1" d="M419.335 361.767V362.101L419.358 361.762L419.335 361.767ZM408.156 378.328L414.512 379.645L419.213 375.48V374.483C419.198 374.705 419.129 374.919 419.011 375.107C418.892 375.295 418.729 375.451 418.536 375.56L418.47 375.597C416.281 376.756 413.799 377.247 411.334 377.007L408.852 376.796C408.628 376.821 408.408 376.874 408.198 376.956V377.289L408.156 378.328Z" fill="black"/>
<path d="M418.484 375.926L418.55 375.889C418.757 375.773 418.93 375.604 419.05 375.399C419.17 375.194 419.232 374.96 419.232 374.723L419.335 362.096C419.335 362.096 420.708 361.123 420.379 365.561C420.05 369.998 419.829 376.631 419.829 376.631C419.829 376.631 419.777 383.866 412.871 383.866C412.871 383.866 405.965 385.178 406.017 381.234C406.069 377.29 408.871 377.125 408.871 377.125L411.348 377.341C413.814 377.576 416.294 377.084 418.484 375.926V375.926Z" fill="#B07473"/>
<path d="M375.057 375.644C375.221 378.493 383.603 376.848 383.603 376.848L389.244 365.89C389.244 365.89 393.945 362.27 391.595 359.092C391.467 358.92 391.351 358.739 391.247 358.551V358.523C391.195 358.439 391.153 358.354 391.106 358.265C389.413 354.908 390.245 349.403 390.245 349.403C390.245 349.403 392.436 333.42 393.207 329.189C393.748 326.204 393.527 316.431 393.343 310.959C393.273 308.688 393.207 307.156 393.207 307.156L379.283 303.433V307.584C379.255 311.015 379.151 315.82 378.813 318.941C378.211 324.258 380.35 341.849 380.35 341.849L381.088 357.86C381.193 360.571 380.554 363.258 379.24 365.631C377.492 368.828 375.216 373.327 375.057 375.32C375.047 375.428 375.047 375.536 375.057 375.644V375.644Z" fill="#CC818C"/>
<path opacity="0.1" d="M375.057 375.644C375.221 378.493 383.603 376.848 383.603 376.848L389.244 365.89C389.244 365.89 393.945 362.27 391.595 359.092C391.467 358.92 391.351 358.739 391.247 358.552C391.172 360.211 389.366 364.353 389.366 364.353C389.366 364.353 384.708 373.675 383.255 375.809C381.803 377.943 375.334 375.414 375.094 375.339C375.073 375.439 375.061 375.542 375.057 375.644V375.644Z" fill="black"/>
<path d="M391.096 358.255C391.096 358.255 393.851 357.616 393.033 364.794C393.063 365.61 392.876 366.42 392.493 367.141C392.109 367.861 391.541 368.468 390.847 368.898C388.877 370.139 385.831 372.805 384.294 377.99C384.295 379.11 383.918 380.197 383.223 381.075C382.528 381.953 381.557 382.571 380.467 382.827C377.981 383.405 374.878 383.918 373.082 383.415C369.74 382.475 371.202 380.185 371.202 380.185L375.038 375.635C375.038 375.635 381.723 378.267 383.203 376.128C384.684 373.989 389.315 364.672 389.315 364.672C389.315 364.672 391.933 358.857 391.096 358.255V358.255Z" fill="#B07473"/>
<path opacity="0.1" d="M413.529 300.617L413.233 311.429C416.994 311.067 419.645 310.559 420.106 309.849C421.088 308.322 424.68 307.673 427.735 307.41C427.641 305.388 427.557 304.039 427.557 304.039L413.529 300.617ZM379.269 308.881C379.629 308.152 380.156 307.518 380.806 307.029C382.287 306.206 382.127 312.289 382.127 312.289C382.127 312.289 387.039 312.336 393.334 312.256C393.263 309.981 393.197 308.453 393.197 308.453L379.273 304.73C379.273 304.73 379.292 306.465 379.269 308.881Z" fill="black"/>
<path d="M377.684 310.329C377.684 310.329 379.33 305.877 380.806 305.059C382.282 304.241 382.127 310.32 382.127 310.32C382.127 310.32 418.296 310.649 420.106 307.852C421.916 305.055 432.436 305.224 432.436 305.224C432.436 305.224 432.107 270.366 431.285 257.213C430.462 244.06 429.146 232.058 425.86 228.443C423.73 226.093 420.689 218.529 418.837 213.48C417.816 210.72 417.144 208.713 417.144 208.713L382.62 210.688L382.338 213.48L378.672 250.147C378.672 250.147 378.201 290.576 376.697 299.799C375.193 309.022 377.684 310.329 377.684 310.329V310.329Z" fill="#444053"/>
<g opacity="0.1">
<path opacity="0.1" d="M417.318 307.875C419.123 305.083 429.649 305.247 429.649 305.247C429.649 305.247 429.32 270.39 428.497 257.236C427.674 244.083 426.358 232.082 423.072 228.467C420.943 226.116 417.901 218.552 416.049 213.503C415.193 211.186 414.582 209.399 414.408 208.887L417.088 208.737C417.088 208.737 417.76 210.744 418.78 213.503C420.661 218.552 423.674 226.125 425.803 228.467C429.094 232.082 430.406 244.083 431.228 257.236C432.051 270.39 432.361 305.224 432.361 305.224C432.361 305.224 421.841 305.055 420.035 307.875C418.489 310.263 391.872 310.371 384.144 310.353C394.053 310.306 415.908 310.009 417.318 307.875ZM378.004 305.055C378.672 304.683 379.005 305.713 379.17 306.935C378.574 308.019 378.054 309.144 377.614 310.301C377.614 310.301 376.674 309.788 376.298 307.189C376.819 306.263 377.426 305.379 378.004 305.055V305.055Z" fill="black"/>
</g>
<path d="M388.351 124.378C385.963 127.64 388.379 132.271 385.817 135.439C384.971 136.488 383.669 137.235 382.785 138.26C381.149 140.168 381.215 142.754 382.019 144.996C382.823 147.239 384.275 149.274 385.272 151.455C385.704 152.396 386.052 153.463 385.606 154.403C385.295 155.056 384.665 155.55 384.139 156.119C382.494 157.957 382.447 160.514 383.33 162.677C384.214 164.839 385.911 166.715 387.561 168.539C388.219 169.263 389.051 170.057 390.147 170.038C390.724 169.992 391.281 169.808 391.773 169.502C395.673 167.449 398.631 163.973 400.033 159.795C401.218 155.865 400.968 151.641 399.328 147.878C397.917 144.554 395.623 141.367 395.605 137.851C395.605 135.063 397.038 132.403 397.292 129.624C397.602 126.254 395.605 120.895 391.534 119.423C391.801 121.6 389.583 122.723 388.351 124.378V124.378Z" fill="#585268"/>
<path opacity="0.1" d="M388.351 124.378C385.963 127.64 388.379 132.271 385.817 135.439C384.971 136.488 383.669 137.235 382.785 138.26C381.149 140.168 381.215 142.754 382.019 144.996C382.823 147.239 384.275 149.274 385.272 151.455C385.704 152.396 386.052 153.463 385.606 154.403C385.295 155.056 384.665 155.55 384.139 156.119C382.494 157.957 382.447 160.514 383.33 162.677C384.214 164.839 385.911 166.715 387.561 168.539C388.219 169.263 389.051 170.057 390.147 170.038C390.724 169.992 391.281 169.808 391.773 169.502C395.673 167.449 398.631 163.973 400.033 159.795C401.218 155.865 400.968 151.641 399.328 147.878C397.917 144.554 395.623 141.367 395.605 137.851C395.605 135.063 397.038 132.403 397.292 129.624C397.602 126.254 395.605 120.895 391.534 119.423C391.801 121.6 389.583 122.723 388.351 124.378V124.378ZM414.86 242.899C410.074 243.152 405.571 245.207 401.382 247.534C397.193 249.861 393.141 252.517 388.633 254.153L414.86 242.899ZM411.884 254.171C407.149 254.626 402.737 256.77 399.455 260.212C398.293 261.444 397.292 262.826 396.079 264.006C394.22 265.812 391.925 267.108 389.418 267.767L411.884 254.171ZM412.866 262.746C409.05 263.805 405.596 265.887 402.877 268.768C402.144 269.558 401.467 270.409 400.743 271.194C396.78 275.425 391.186 277.704 385.784 279.839" fill="black"/>
<path d="M412.457 143.769C412.564 147.593 412.894 151.407 413.445 155.193C413.886 157.891 414.516 160.293 415.419 161.36C418.047 164.487 402.595 168.68 402.595 168.68L393.47 161.628C393.47 161.628 400.705 154.967 397.334 148.466C393.964 141.964 412.457 143.769 412.457 143.769V143.769Z" fill="#CC818C"/>
<path opacity="0.1" d="M382.338 213.48H418.837C417.817 210.72 417.144 208.713 417.144 208.713L382.62 210.688L382.338 213.48Z" fill="black"/>
<path d="M379.988 212.822H419.006C417.911 208.901 419.006 205.267 420.571 202.48C421.665 200.521 423.042 198.734 424.656 197.177L424.924 196.937L438.557 193.914L439.291 193.755C439.291 193.755 439.399 168.985 430.631 165.587C421.864 162.188 416.599 157.595 416.599 157.595L404.546 161.318L395.666 156.829C392.817 159.898 385.253 158.709 385.253 158.709C372.866 160.119 372.866 169.451 372.866 169.451C372.866 169.451 380.101 186.332 380.651 186.332C381.201 186.332 379.988 212.822 379.988 212.822V212.822Z" fill="#67647E"/>
<path opacity="0.1" d="M393.461 197.074C393.461 197.074 385.502 195.311 382.794 192.227L393.461 197.074ZM433.584 187.831L424.37 195.395C424.437 195.993 424.539 196.586 424.675 197.172L424.943 196.933L438.576 193.91L433.584 187.831ZM408.593 210.194C408.593 210.194 410.615 211.332 413.708 212.822H419.011C417.915 208.901 419.011 205.267 420.576 202.48L411.207 199.448C414.404 202.409 408.593 210.194 408.593 210.194V210.194Z" fill="black"/>
<path d="M378.343 166.461L372.861 169.418L367.488 183.008C367.488 183.008 361.899 197.915 362.444 201.864C362.444 201.864 360.474 211.176 363.981 212.822L373.129 216.959C373.29 217.032 373.47 217.053 373.644 217.018C373.817 216.983 373.976 216.895 374.097 216.766C374.218 216.637 374.295 216.473 374.318 216.298C374.341 216.122 374.308 215.944 374.224 215.788C372.922 213.32 371.493 209.465 373.754 207.326L371.122 201.85L380.651 186.299L383.824 180.949L378.343 166.461Z" fill="#67647E"/>
<path opacity="0.1" d="M390.523 193.962C390.993 195.898 392.601 198.874 397.903 199.998L403.742 204.764L409.933 207.585L412.453 208.727L413.525 200.999L411.094 199.668L408.274 198.122C408.274 198.122 401.885 186.539 391.764 191.432C391.299 191.649 390.922 192.018 390.697 192.478C390.471 192.938 390.409 193.462 390.523 193.962V193.962Z" fill="black"/>
<path d="M390.856 193.303C391.326 195.24 392.934 198.216 398.237 199.339L404.075 204.111L410.267 206.931L412.786 208.074L413.858 200.345L411.428 199.02L408.607 197.468C408.607 197.468 402.219 185.89 392.097 190.779C391.634 190.995 391.258 191.363 391.032 191.822C390.806 192.282 390.744 192.804 390.856 193.303V193.303Z" fill="#CC818C"/>
<path opacity="0.1" d="M402.261 153.801C410.071 153.801 416.402 147.47 416.402 139.661C416.402 131.851 410.071 125.52 402.261 125.52C394.452 125.52 388.121 131.851 388.121 139.661C388.121 147.47 394.452 153.801 402.261 153.801Z" fill="black"/>
<path d="M402.261 153.472C410.071 153.472 416.402 147.141 416.402 139.332C416.402 131.522 410.071 125.191 402.261 125.191C394.452 125.191 388.121 131.522 388.121 139.332C388.121 147.141 394.452 153.472 402.261 153.472Z" fill="#CC818C"/>
<path opacity="0.1" d="M411.019 169.54L406.788 161.276C406.788 161.276 413.012 158.765 413.463 155.851C413.915 152.936 419.424 159.264 418.23 161.36C417.036 163.457 411.019 169.54 411.019 169.54Z" fill="black"/>
<path d="M411.019 168.882L406.788 160.618C406.788 160.618 413.012 158.107 413.463 155.193C413.915 152.278 419.424 158.61 418.23 160.702C417.036 162.794 411.019 168.882 411.019 168.882Z" fill="#67647E"/>
<path d="M376.227 190.224L399.732 221.81C399.732 221.81 391.073 226.511 379.123 218.082L373.952 211.947L359.261 187.173L376.227 190.224Z" fill="#F6F8FB"/>
<path d="M371.601 207.397L373.74 207.34C373.74 207.34 386.809 194.648 390.015 201.069C393.221 207.491 381.878 213.48 381.878 213.48L378.427 215.36L373.905 216.677L371.028 212.812L371.601 207.397Z" fill="#CC818C"/>
<path opacity="0.1" d="M374.756 214.251C374.953 214.98 375.141 215.783 374.812 216.46C374.736 216.643 374.598 216.793 374.422 216.883C374.273 216.945 374.111 216.968 373.952 216.949C372.82 216.852 371.766 216.33 371.004 215.487C370.252 214.651 369.609 213.722 369.091 212.723C368.508 211.712 367.902 210.584 368.113 209.432C368.343 208.173 369.467 207.298 370.539 206.612C372.706 205.178 372.758 206.847 373.251 208.69L374.756 214.251Z" fill="black"/>
<path d="M374.427 214.251C374.624 214.98 374.812 215.783 374.483 216.46C374.407 216.643 374.269 216.793 374.093 216.883C373.944 216.945 373.783 216.968 373.623 216.949C372.491 216.852 371.437 216.33 370.675 215.487C369.923 214.651 369.28 213.722 368.762 212.723C368.179 211.712 367.573 210.584 367.784 209.432C368.015 208.173 369.138 207.298 370.21 206.612C372.377 205.178 372.429 206.847 372.922 208.69L374.427 214.251Z" fill="#67647E"/>
<path opacity="0.1" d="M380.646 186.299L381.741 184.451L380.782 187.883L380.646 186.299V186.299ZM410.267 206.913L412.786 208.055L413.858 200.327L411.428 199.001C413.087 200.91 411.635 204.454 410.267 206.913ZM420.379 197.943C420.379 197.943 412.241 198.437 408.791 196.218Z" fill="black"/>
<g opacity="0.1">
<path opacity="0.1" d="M419.368 203.133C420.464 201.175 421.842 199.389 423.458 197.83C423.845 197.587 424.247 197.367 424.661 197.172L437.354 194.568L438.087 194.408C438.087 194.408 438.2 169.639 429.428 166.24C424.512 164.365 419.903 161.768 415.753 158.535L416.716 158.239C416.716 158.239 421.977 162.841 430.744 166.231C439.511 169.62 439.413 194.408 439.413 194.408H438.096L425.103 196.895L424.37 197.595C422.74 199.225 421.344 201.071 420.219 203.081C418.504 206.27 418.113 210.006 419.133 213.48H417.788C416.707 209.559 417.821 205.925 419.368 203.133ZM384.726 159.419C384.938 159.391 385.14 159.358 385.356 159.334C386.246 159.46 387.142 159.534 388.04 159.555C386.934 159.586 385.827 159.54 384.726 159.419V159.419ZM403.333 161.962L395.303 157.915C395.47 157.783 395.627 157.64 395.774 157.487L404.151 161.718L403.333 161.962Z" fill="black"/>
</g>
<path d="M433.913 187.173L439.286 193.755L440.381 211.618C440.381 211.618 441.791 220.715 431.393 218.524C420.994 216.333 408.922 209.536 408.922 209.536C408.922 209.536 414.733 201.751 411.555 198.794L426.462 203.617C426.462 203.617 428.981 203.067 427.007 200.877C425.033 198.686 424.685 194.737 424.685 194.737L433.913 187.173Z" fill="#67647E"/>
<path opacity="0.1" d="M436.324 206.029L439.286 209.423C438.524 209.19 437.843 208.749 437.32 208.149C436.797 207.549 436.452 206.815 436.324 206.029V206.029ZM431.285 205.479L435.887 211.397L433.588 211.947L431.285 205.479ZM385.38 132.84C384.872 131.603 385.258 130.174 385.85 128.985C386.442 127.796 387.293 126.714 387.73 125.454C388.412 123.574 388.2 121.468 388.943 119.616C390.245 116.372 393.945 114.915 397.264 113.82C398.242 113.495 399.285 113.166 400.291 113.406C401.617 113.726 402.505 114.943 403.582 115.756C408.085 119.113 415.405 115.418 419.758 118.972C421.427 120.33 422.235 122.512 422.484 124.646C422.734 126.78 422.484 128.947 422.461 131.1C422.39 134.861 423.091 138.989 425.916 141.485C426.767 142.237 427.768 142.806 428.596 143.581C429.423 144.357 430.077 145.462 429.931 146.576C429.814 147.093 429.657 147.601 429.461 148.094C428.897 150.059 429.733 152.142 430.753 153.914C433.8 159.179 439.163 163.518 445.251 163.64C444.842 166.71 441.655 168.492 438.825 169.752C435.219 171.355 431.43 172.929 427.491 172.727C423.552 172.525 419.443 170.005 418.743 166.146C418.503 164.816 418.536 163.184 417.379 162.484C416.683 162.061 415.781 162.169 415.029 161.849C413.943 161.379 413.402 160.185 413.045 159.057C412.311 156.738 411.917 154.325 411.874 151.893C411.827 149.011 412.213 145.866 410.577 143.492C409.063 141.297 406.374 140.201 404.63 138.161C403.023 136.281 401.269 134.034 398.632 133.676C395.087 133.164 387.538 138.124 385.38 132.84V132.84Z" fill="black"/>
<path d="M385.38 132.182C384.872 130.945 385.258 129.516 385.85 128.327C386.442 127.137 387.293 126.056 387.73 124.796C388.412 122.916 388.2 120.81 388.943 118.958C390.245 115.714 393.945 114.257 397.264 113.161C398.242 112.837 399.285 112.508 400.291 112.748C401.617 113.067 402.505 114.285 403.582 115.098C408.085 118.459 415.405 114.76 419.758 118.314C421.427 119.677 422.235 121.854 422.484 123.988C422.734 126.122 422.484 128.289 422.461 130.442C422.39 134.203 423.091 138.33 425.916 140.827C426.767 141.579 427.768 142.148 428.596 142.923C429.423 143.699 430.077 144.804 429.931 145.918C429.813 146.437 429.656 146.946 429.461 147.441C428.897 149.401 429.733 151.488 430.753 153.256C433.8 158.521 439.163 162.86 445.251 162.982C444.842 166.052 441.655 167.834 438.825 169.093C435.219 170.701 431.43 172.271 427.491 172.069C423.552 171.867 419.443 169.347 418.743 165.464C418.503 164.134 418.536 162.503 417.379 161.802C416.683 161.379 415.781 161.487 415.029 161.168C413.943 160.698 413.402 159.504 413.045 158.375C412.311 156.056 411.917 153.643 411.874 151.211C411.827 148.329 412.213 145.184 410.577 142.81C409.063 140.615 406.374 139.52 404.63 137.48C403.023 135.599 401.269 133.352 398.632 132.995C395.087 132.529 387.538 137.465 385.38 132.182V132.182Z" fill="#585268"/>
<path opacity="0.1" d="M395.402 168.515L403.507 161.934C403.507 161.934 397.96 158.925 397.297 156.359C396.634 153.792 392.196 157.576 392.648 159.88C393.099 162.183 395.402 168.515 395.402 168.515Z" fill="black"/>
<path d="M395.731 167.528L403.836 160.947C403.836 160.947 398.289 157.938 397.626 155.371C396.963 152.805 392.525 156.589 392.976 158.892C393.428 161.196 395.731 167.528 395.731 167.528Z" fill="#67647E"/>
<path opacity="0.1" d="M404.151 167.1C404.507 167.1 404.795 166.812 404.795 166.456C404.795 166.101 404.507 165.812 404.151 165.812C403.795 165.812 403.507 166.101 403.507 166.456C403.507 166.812 403.795 167.1 404.151 167.1Z" fill="black"/>
<path opacity="0.1" d="M404.151 170.682C404.507 170.682 404.795 170.394 404.795 170.038C404.795 169.683 404.507 169.394 404.151 169.394C403.795 169.394 403.507 169.683 403.507 170.038C403.507 170.394 403.795 170.682 404.151 170.682Z" fill="black"/>
<path opacity="0.1" d="M404.151 174.26C404.507 174.26 404.795 173.971 404.795 173.616C404.795 173.26 404.507 172.972 404.151 172.972C403.795 172.972 403.507 173.26 403.507 173.616C403.507 173.971 403.795 174.26 404.151 174.26Z" fill="black"/>
<g opacity="0.1">
<path opacity="0.1" d="M388.642 123.048C389.282 121.285 389.145 119.31 389.742 117.538C389.469 117.931 389.24 118.354 389.061 118.798C388.318 120.65 388.525 122.766 387.848 124.641C387.848 124.674 387.815 124.712 387.801 124.749C388.133 124.209 388.414 123.639 388.642 123.048V123.048ZM439.784 167.345C436.178 168.952 432.389 170.523 428.445 170.32C424.501 170.118 420.402 167.599 419.702 163.716C419.462 162.385 419.495 160.754 418.338 160.054C417.643 159.63 416.74 159.739 415.988 159.419C414.897 158.949 414.361 157.755 414.004 156.627C413.269 154.304 412.875 151.888 412.833 149.453C412.786 146.571 413.167 143.426 411.536 141.052C410.022 138.857 407.333 137.762 405.589 135.721C403.977 133.841 402.228 131.594 399.586 131.237C395.966 130.767 388.412 135.703 386.259 130.419C385.914 129.42 385.963 128.327 386.395 127.363C386.24 127.626 386.09 127.89 385.953 128.158C385.342 129.347 384.957 130.776 385.483 132.012C387.641 137.296 395.191 132.337 398.815 132.83C401.452 133.188 403.206 135.449 404.818 137.315C406.562 139.336 409.247 140.451 410.76 142.651C412.396 145.001 412.016 148.17 412.063 151.047C412.101 153.48 412.494 155.895 413.228 158.215C413.586 159.339 414.126 160.566 415.212 161.008C415.964 161.323 416.867 161.219 417.563 161.642C418.714 162.338 418.686 163.993 418.921 165.3C419.622 169.183 423.73 171.707 427.67 171.909C431.609 172.112 435.403 170.537 439.004 168.929C441.599 167.777 444.49 166.174 445.265 163.551C444.006 165.276 441.805 166.447 439.784 167.345Z" fill="black"/>
</g>
</g>
<defs>
<linearGradient id="paint0_linear_55_111" x1="165.676" y1="149.091" x2="165.676" y2="63.7967" gradientUnits="userSpaceOnUse">
<stop stop-color="#808080" stop-opacity="0.25"/>
<stop offset="0.54" stop-color="#808080" stop-opacity="0.12"/>
<stop offset="1" stop-color="#808080" stop-opacity="0.1"/>
</linearGradient>
<linearGradient id="paint1_linear_55_111" x1="267.875" y1="259.253" x2="267.875" y2="179.022" gradientUnits="userSpaceOnUse">
<stop stop-color="#808080" stop-opacity="0.25"/>
<stop offset="0.54" stop-color="#808080" stop-opacity="0.12"/>
<stop offset="1" stop-color="#808080" stop-opacity="0.1"/>
</linearGradient>
<linearGradient id="paint2_linear_55_111" x1="39.1271" y1="135.445" x2="39.1271" y2="135.359" gradientUnits="userSpaceOnUse">
<stop stop-color="#808080" stop-opacity="0.25"/>
<stop offset="0.54" stop-color="#808080" stop-opacity="0.12"/>
<stop offset="1" stop-color="#808080" stop-opacity="0.1"/>
</linearGradient>
<linearGradient id="paint3_linear_55_111" x1="65.6912" y1="386.734" x2="65.6912" y2="103.036" gradientUnits="userSpaceOnUse">
<stop stop-color="#808080" stop-opacity="0.25"/>
<stop offset="0.54" stop-color="#808080" stop-opacity="0.12"/>
<stop offset="1" stop-color="#808080" stop-opacity="0.1"/>
</linearGradient>
<linearGradient id="paint4_linear_55_111" x1="402.299" y1="384.943" x2="402.299" y2="111.573" gradientUnits="userSpaceOnUse">
<stop stop-color="#808080" stop-opacity="0.25"/>
<stop offset="0.54" stop-color="#808080" stop-opacity="0.12"/>
<stop offset="1" stop-color="#808080" stop-opacity="0.1"/>
</linearGradient>
<clipPath id="clip0_55_111">
<rect width="481.124" height="393.865" fill="white"/>
</clipPath>
</defs>
</svg>
