<svg width="299" height="244" viewBox="0 0 299 244" fill="none" xmlns="http://www.w3.org/2000/svg">
<g clip-path="url(#clip0_57_538)">
<path opacity="0.1" d="M51.2509 243.978C79.556 243.978 102.502 240.068 102.502 235.245C102.502 230.421 79.556 226.511 51.2509 226.511C22.9458 226.511 0 230.421 0 235.245C0 240.068 22.9458 243.978 51.2509 243.978Z" fill="#00C7FA"/>
<path opacity="0.1" d="M246.782 241.91C275.087 241.91 298.033 238 298.033 233.177C298.033 228.354 275.087 224.444 246.782 224.444C218.477 224.444 195.531 228.354 195.531 233.177C195.531 238 218.477 241.91 246.782 241.91Z" fill="#00C7FA"/>
<path opacity="0.1" d="M79.9077 0.133966C66.5125 0.850314 52.9776 4.76402 42.5265 13.1767C33.3567 20.5615 26.7436 32.1716 28.3568 43.837C30.2613 57.6077 42.5469 67.625 47.1042 80.7609C50.0365 89.2057 49.5794 98.524 47.6604 107.26C46.4257 112.889 44.5271 118.524 40.8784 122.985C34.306 131.01 22.4455 134.883 19.2161 144.74C15.7043 155.459 24.5538 165.971 32.8675 173.595C39.5039 179.678 46.4548 185.732 54.818 189.066C60.9332 191.507 67.5696 192.383 74.1478 192.732C92.3126 193.686 110.474 190.784 127.437 184.218C135.564 181.064 143.427 177.066 151.933 175.164C170.06 171.111 188.711 176.955 207.083 179.693C222.831 182.032 238.835 182.079 254.597 179.832C264.516 178.417 274.763 175.863 282.232 169.189C289.803 162.413 293.589 151.924 293.17 141.761C292.75 131.598 288.464 121.814 282.151 113.835C273.997 103.53 262.751 96.1973 252.967 87.4148C243.004 78.4672 234.529 67.9908 227.86 56.3789C224.016 49.6813 220.746 42.5732 215.766 36.6764C208 27.4862 196.736 22.0204 185.482 17.798C159.518 8.07203 132.588 6.09188 105.519 1.7938C97.0592 0.445548 88.4776 -0.314479 79.9077 0.133966V0.133966Z" fill="#00C7FA"/>
<g opacity="0.7">
<path opacity="0.7" d="M75.2864 106.902H130.894V137.975H75.2864V106.902Z" fill="#F6F7F9"/>
<path opacity="0.2" d="M85.7548 126.485C88.952 126.485 91.5439 123.893 91.5439 120.696C91.5439 117.499 88.952 114.907 85.7548 114.907C82.5577 114.907 79.9658 117.499 79.9658 120.696C79.9658 123.893 82.5577 126.485 85.7548 126.485Z" fill="#00C7FA"/>
<path opacity="0.2" d="M98.6025 113.835H123.826V115.422H98.6025V113.835ZM98.6025 117.88H111.453V119.467H98.6025V117.88ZM98.6025 121.925H119.385V123.512H98.6025V121.925ZM98.6025 125.969H123.826V127.556H98.6025V125.969ZM116.849 131.808H123.829V134.874H116.849V131.808Z" fill="#00C7FA"/>
<path opacity="0.7" d="M122.102 21.0244H177.71V52.0982H122.102V21.0244Z" fill="#F6F7F9"/>
<path opacity="0.2" d="M132.574 40.6076C135.771 40.6076 138.363 38.0158 138.363 34.8186C138.363 31.6214 135.771 29.0295 132.574 29.0295C129.376 29.0295 126.785 31.6214 126.785 34.8186C126.785 38.0158 129.376 40.6076 132.574 40.6076Z" fill="#00C7FA"/>
<path opacity="0.2" d="M145.421 27.9578H170.645V29.5448H145.421V27.9578ZM145.421 32.0025H158.272V33.5895H145.421V32.0025ZM145.421 36.0472H166.204V37.6343H145.421V36.0472ZM145.421 40.0949H170.645V41.6819H145.421V40.0949ZM163.665 45.9305H170.645V48.9968H163.665V45.9305Z" fill="#00C7FA"/>
<path opacity="0.7" d="M140.611 73.1956H196.218V104.269H140.611V73.1956Z" fill="#F6F7F9"/>
<path opacity="0.2" d="M151.079 92.7814C154.277 92.7814 156.868 90.1896 156.868 86.9924C156.868 83.7952 154.277 81.2034 151.079 81.2034C147.882 81.2034 145.29 83.7952 145.29 86.9924C145.29 90.1896 147.882 92.7814 151.079 92.7814Z" fill="#00C7FA"/>
<path opacity="0.2" d="M163.93 80.1318H189.154V81.7189H163.93V80.1318ZM163.93 84.1766H176.781V85.7636H163.93V84.1766ZM163.93 88.2213H184.713V89.8084H163.93V88.2213ZM163.93 92.2661H189.154V93.8531H163.93V92.2661ZM182.173 98.1046H189.154V101.171H182.173V98.1046Z" fill="#00C7FA"/>
</g>
<path d="M55.875 39.5186H149.382V92.3536H55.875V39.5186Z" fill="url(#paint0_linear_57_538)"/>
<path d="M56.5361 40.1736H148.729V91.6953H56.5361V40.1736Z" fill="#F6F7F9"/>
<path opacity="0.2" d="M73.8916 72.6453C79.1924 72.6453 83.4895 68.3481 83.4895 63.0474C83.4895 57.7466 79.1924 53.4495 73.8916 53.4495C68.5908 53.4495 64.2937 57.7466 64.2937 63.0474C64.2937 68.3481 68.5908 72.6453 73.8916 72.6453Z" fill="#00C7FA"/>
<path opacity="0.2" d="M95.1985 51.6702H137.02V54.2997H95.1985V51.6702ZM95.1985 58.3794H116.503V61.0089H95.1985V58.3794ZM95.1985 65.0857H129.656V67.7152H95.1985V65.0857ZM95.1985 71.792H137.02V74.4215H95.1985V71.792Z" fill="#00C7FA"/>
<path d="M125.445 81.4714H137.018V86.5557H125.445V81.4714Z" fill="#00C7FA"/>
<path d="M121.465 110.894H210.402V160.593H121.465V110.894Z" fill="url(#paint1_linear_57_538)"/>
<path d="M122.079 111.235H209.788V160.249H122.079V111.235Z" fill="#F6F7F9"/>
<path opacity="0.2" d="M138.593 142.128C143.636 142.128 147.725 138.039 147.725 132.996C147.725 127.953 143.636 123.864 138.593 123.864C133.549 123.864 129.461 127.953 129.461 132.996C129.461 138.039 133.549 142.128 138.593 142.128Z" fill="#00C7FA"/>
<path opacity="0.2" d="M158.86 122.172H198.647V124.674H158.86V122.172ZM158.86 128.555H179.128V131.057H158.86V128.555ZM158.86 134.935H191.641V137.437H158.86V134.935ZM158.86 141.316H198.647V143.817H158.86V141.316Z" fill="#00C7FA"/>
<path opacity="0.5" d="M187.636 150.523H198.647V155.36H187.636V150.523Z" fill="#00C7FA"/>
<path opacity="0.1" d="M24.1287 83.8419L24.3446 83.8886C24.2815 83.8453 24.204 83.8285 24.1287 83.8419V83.8419Z" fill="url(#paint2_linear_57_538)"/>
<path d="M69.183 117.67C68.5394 113.349 64.6141 103.268 64.6141 103.268C64.5442 102.976 64.4685 102.668 64.3811 102.371C61.5944 92.7933 57.7389 91.9459 57.7389 91.9459L43.9274 89.0019C44.0414 89.0733 44.1403 89.1663 44.2186 89.2756L44.0002 89.3106C43.3663 88.5629 42.9476 87.657 42.7888 86.6898C42.7626 86.5471 42.7393 86.3986 42.7218 86.2472C43.7144 85.2805 44.4887 84.1125 44.9927 82.8218C45.4966 81.5311 45.7185 80.1476 45.6435 78.764C45.5684 77.3805 45.1982 76.029 44.5577 74.8003C43.9171 73.5717 43.0211 72.4944 41.9297 71.6407C41.7871 71.5271 41.6386 71.4194 41.4871 71.3116C42.1394 70.6215 42.1598 69.6576 41.6735 68.6908C40.5844 66.4282 38.2199 64.9984 35.7855 64.3025C33.9276 63.7696 31.9125 63.5978 30.0722 64.1802C29.0209 64.5121 28.0658 65.0741 27.0816 65.5663C25.247 66.4835 23.2261 67.2086 21.84 68.7141C21.5168 69.0665 21.2226 69.5149 21.3158 69.9779C21.3886 70.3245 21.6594 70.5894 21.8371 70.8981C22.2302 71.5853 22.1283 72.4502 21.8633 73.1986C21.5983 73.947 21.1964 74.6546 21.0072 75.4117C20.8179 76.1688 20.8936 77.0832 21.4702 77.6306C21.7503 77.8498 22.0419 78.054 22.3438 78.2421C22.6601 78.5099 22.9375 78.8206 23.1678 79.1652L24.8044 81.3754C25.5683 82.3552 26.2501 83.3964 26.8428 84.4883C27.2475 85.2891 27.5649 86.1482 28.1095 86.8645C28.2697 87.0775 28.4522 87.2728 28.654 87.4469C28.6016 87.4265 28.5463 87.409 28.4939 87.3858C28.735 87.6209 29.0215 87.8043 29.3359 87.925C29.6504 88.0457 29.9861 88.101 30.3226 88.0875H30.4041C30.529 88.0855 30.6485 88.0367 30.739 87.9507V88.2419C30.7681 89.3047 30.7652 90.4346 30.6895 91.4946L30.5614 91.4305C30.3717 91.3352 30.1586 91.2964 29.9475 91.3186C29.7364 91.3408 29.5361 91.4231 29.3704 91.5557L16.6479 101.748C16.6479 101.748 13.8844 105.533 14.2688 112.056L12.0412 121.846C12.0412 121.846 9.2544 130.154 11.3976 136.086C13.5408 142.017 14.7842 145.404 14.7842 145.404C14.7842 145.404 15.6404 152.142 16.9275 152.684C18.2146 153.226 18.7708 153.534 18.7708 153.534L19.027 155.145C19.027 155.145 19.1115 155.299 19.2629 155.567C20.2005 157.195 23.6687 162.943 25.6867 162.331C25.9388 163.892 26.0489 165.472 26.0158 167.052L28.0076 180.447C28.0076 180.447 29.3995 184.09 29.315 185.997C29.2306 187.904 30.9428 190.618 30.9428 190.618C29.9034 192.519 29.5987 194.736 30.0867 196.847C30.9021 200.409 31.93 216.85 31.93 216.85L33.4297 220.833L33.386 225.492C33.2618 226.249 32.9449 226.961 32.4658 227.56C31.499 228.608 31.5631 229.82 29.2626 231.249C26.9622 232.679 25.477 233.218 25.477 235.125C25.4744 235.389 25.451 235.652 25.4072 235.911C25.1917 237.306 24.7753 238.058 29.0471 238.465C34.0616 238.94 37.4045 235.667 37.4045 235.667C37.4045 235.667 38.1413 234.33 41.6153 233.791C41.6153 233.791 42.8004 233.727 42.8674 232.676C42.8907 232.315 42.8849 231.622 42.8528 230.859C42.7975 229.403 42.6577 227.708 42.4743 227.624C42.2442 227.522 41.8366 226.057 41.6968 225.527H42.6636C42.6636 225.527 43.5634 218.789 42.6636 214.421C41.7638 210.053 42.5791 206.963 42.5791 206.963L42.4073 195.438C42.4073 195.438 41.193 194.206 42.1452 191.964C43.0975 189.722 42.1452 178.615 42.1452 178.615C42.1452 178.615 42.4918 174.632 43.476 173.7C44.4603 172.768 43.5255 167.861 43.476 167.605L45.2232 173.487C45.2232 173.487 45.9949 185.185 47.6256 187.305L48.0973 192.599C48.0973 192.599 51.4403 197.473 50.7967 200.103C50.1532 202.732 51.484 212.222 51.484 212.222V221.928C51.484 221.928 49.9814 225.827 52.0838 227.225L52.9895 227.19C52.6808 227.481 52.4595 227.886 52.1159 228.244C51.714 228.658 51.4869 230.23 51.3587 231.581C51.251 232.726 51.2161 233.71 51.2161 233.71C51.2161 233.71 52.1159 235.14 53.7873 235.236C55.4588 235.332 60.9887 239.56 60.9887 239.56C60.9887 239.56 66.4574 239.56 67.8697 239.269L67.9541 239.249C68.4078 239.104 68.7891 238.791 69.0199 238.375C69.3048 237.893 69.3974 237.321 69.2791 236.773C69.1014 235.938 68.4404 235.026 66.9699 234.243C63.3037 232.306 62.7592 230.495 62.7592 230.495L60.3568 226.896H60.7004C60.7004 226.896 60.4878 223.081 63.0999 218.801L62.931 199.943C62.931 199.943 63.9997 193.458 62.1593 189.94C62.1593 189.94 62.0079 186.21 63.2396 185.065C64.4714 183.921 61.6002 172.352 61.6002 172.352C61.6002 172.352 61.0178 166.143 60.3073 160.476C63.1989 163.22 66.2011 153.339 66.7136 151.583H66.7893C66.7893 151.583 66.7748 151.537 66.7544 151.455C66.734 151.374 66.7893 151.33 66.7893 151.33C66.7893 151.315 66.1487 149.044 66.6175 149.507C67.0864 149.97 68.2482 148.237 68.2482 148.237C68.2482 148.237 68.0764 138.785 70.0915 134.021C72.1066 129.257 69.183 117.67 69.183 117.67V117.67ZM60.5664 123.684L60.581 123.657C60.8722 129.429 60.5227 141.744 60.5227 141.744C60.5227 141.744 60.1267 143.322 59.7016 145.18L59.3958 133.48L59.1046 122.461L60.5664 123.684ZM23.6629 119.706C23.6629 119.706 25.1189 137.929 23.6629 140.556C23.2465 141.304 22.8999 142.635 22.6117 144.158C22.1312 142.894 21.112 139.927 21.476 138.354C21.9477 136.316 20.5325 130.978 20.5325 130.853C20.5325 130.728 20.4044 127.886 21.4323 125.702C22.4602 123.518 21.7759 122.586 21.7759 122.586C21.7759 122.586 22.635 119.027 23.6629 119.706V119.706Z" fill="url(#paint3_linear_57_538)"/>
<path d="M27.2095 160.747C25.9428 166.327 20.8934 157.888 19.7432 155.864L19.5103 155.445L20.0577 152.879L22.9522 151.7C23.4094 151.939 23.8424 152.222 24.2451 152.544C25.838 153.779 28.188 156.426 27.2095 160.747ZM66.3757 151.615L66.3437 151.741C66.3437 151.778 66.3175 151.822 66.3029 151.877C65.8079 153.625 62.8638 163.426 60.0217 160.704C56.9117 157.716 58.4231 150.855 58.4231 150.855H58.4522L64.9954 150.186L66.2912 151.519L66.3757 151.615Z" fill="#EFB7B9"/>
<path d="M62.5903 199.87L62.7562 218.588C60.1937 222.839 60.4005 226.625 60.4005 226.625L51.9557 226.96C49.894 225.574 51.3733 221.704 51.3733 221.704V212.068C51.3733 212.068 50.0542 202.651 50.6832 200.03C51.3122 197.409 48.0333 192.584 48.0333 192.584L47.5732 187.328C45.9716 185.225 45.2145 173.612 45.2145 173.612L43.4935 167.788C43.5372 168.042 44.4311 172.937 43.4935 173.837C42.5558 174.736 42.1889 178.717 42.1889 178.717C42.1889 178.717 43.1149 189.739 42.1889 191.967C41.2629 194.194 42.4393 195.461 42.4393 195.461L42.6112 206.902C42.6112 206.902 41.8104 209.974 42.6927 214.307C43.575 218.64 42.6927 225.329 42.6927 225.329H33.6073L33.6481 220.67L32.1775 216.715C32.1775 216.715 31.1671 200.394 30.3692 196.862C29.8896 194.766 30.1876 192.568 31.2078 190.677C31.2078 190.677 29.5276 187.983 29.6121 186.09C29.6965 184.197 28.3279 180.581 28.3279 180.581L26.371 167.287C26.4261 164.73 26.1003 162.178 25.4042 159.716C24.2657 155.931 22.5854 150.966 22.5854 150.966L24.4841 151.135L34.0703 151.988C34.0703 151.988 57.3662 150.421 58.4174 151.723C58.6387 152.148 58.7882 152.606 58.86 153.08C59.9054 157.783 61.2886 172.506 61.2886 172.506C61.2886 172.506 64.1074 183.991 62.896 185.126C61.6846 186.262 61.8361 189.963 61.8361 189.963C63.6415 193.434 62.5903 199.87 62.5903 199.87V199.87Z" fill="#444053"/>
<path d="M42.8906 232.417C42.8236 233.459 41.6588 233.523 41.6588 233.523C38.2518 234.059 37.5296 235.387 37.5296 235.387C37.5296 235.387 34.2478 238.634 29.3324 238.177C25.1421 237.775 25.5468 237.012 25.7623 235.643C25.8052 235.385 25.8276 235.124 25.8293 234.863C25.8293 232.97 27.2853 232.431 29.5537 231.013C31.8222 229.595 31.761 228.393 32.7074 227.353C33.6538 226.313 33.7499 224.295 33.7499 224.295C34.8215 222.432 37.5355 224.587 37.5355 224.587C37.6607 225.248 41.6996 225.169 41.6996 225.169C41.6996 225.169 42.2354 227.315 42.5091 227.44C42.6897 227.525 42.8265 229.208 42.8819 230.643C42.9081 231.371 42.911 232.062 42.8906 232.417V232.417Z" fill="#B07473"/>
<path opacity="0.1" d="M42.8906 232.417C42.8236 233.459 41.6588 233.524 41.6588 233.524C38.2518 234.059 37.5297 235.387 37.5297 235.387C37.5297 235.387 34.2478 238.634 29.3324 238.177C25.1421 237.775 25.5468 237.012 25.7623 235.643C27.6347 236.109 31.2165 236.756 33.3073 235.62C36.2193 234.042 38.2955 232.938 38.2955 232.938L42.8761 230.606C42.9081 231.372 42.911 232.062 42.8906 232.417V232.417Z" fill="black"/>
<path d="M68.5686 238.034C68.3449 238.45 67.9693 238.763 67.5202 238.908C67.4938 238.917 67.4665 238.924 67.4387 238.928C66.0497 239.219 60.6858 239.219 60.6858 239.219C60.6858 239.219 55.2491 235.009 53.6184 234.912C51.9877 234.816 51.0938 233.398 51.0938 233.398C51.0938 233.398 51.1258 232.42 51.2306 231.284C51.3587 229.942 51.583 228.372 51.9761 227.97C52.7041 227.213 52.8497 226.174 54.5008 226.835C54.5008 226.835 56.8304 222.726 59.5793 225.9L62.4214 230.213C62.4214 230.213 62.9572 232.009 66.5564 233.934C67.9978 234.706 68.6472 235.614 68.819 236.444C68.9372 236.987 68.8478 237.554 68.5686 238.034V238.034Z" fill="#B07473"/>
<path opacity="0.1" d="M68.5686 238.034C68.2482 238.305 67.8901 238.596 67.5202 238.908C67.4938 238.917 67.4665 238.924 67.4387 238.928C66.0497 239.219 60.6858 239.219 60.6858 239.219C60.6858 239.219 55.2491 235.009 53.6184 234.913C51.9877 234.816 51.0938 233.398 51.0938 233.398C51.0938 233.398 51.1258 232.42 51.2306 231.284C52.8992 231.785 55.4326 232.667 56.1111 233.614C57.1507 235.07 60.3102 237.082 60.3102 237.082C60.3102 237.082 66.2011 236.517 68.819 236.438C68.9387 236.983 68.8493 237.552 68.5686 238.034V238.034Z" fill="black"/>
<path d="M45.6394 91.2265L37.8761 99.4296C37.8761 99.4296 28.4733 98.7365 30.1157 95.9585C30.9514 94.5462 31.0824 91.5905 31.0096 89.0105C30.9398 86.5266 30.6835 84.4125 30.6835 84.4125C30.6835 84.4125 43.8719 77.8489 42.8614 83.9699C42.6469 85.1237 42.6341 86.306 42.8236 87.4642C43.3972 90.5568 45.6394 91.2265 45.6394 91.2265V91.2265Z" fill="#EFB7B9"/>
<path opacity="0.1" d="M42.8586 83.9699C42.6441 85.1237 42.6313 86.306 42.8207 87.4642C41.9189 88.378 40.8442 89.1032 39.6594 89.5976C38.4745 90.0921 37.2032 90.3458 35.9193 90.3442C34.1255 90.3442 32.2065 88.8882 30.7651 88.0292C30.6952 85.5452 30.6807 84.4125 30.6807 84.4125C30.6807 84.4125 43.869 77.8489 42.8586 83.9699Z" fill="black"/>
<path d="M45.6394 80.1203C45.6401 82.3226 44.893 84.4598 43.5203 86.182C42.1476 87.9042 40.2308 89.1092 38.0838 89.5996C35.9368 90.0901 33.6869 89.8369 31.7026 88.8815C29.7183 87.9262 28.1172 86.3253 27.1617 84.3411C26.2061 82.3569 25.9526 80.107 26.4428 77.96C26.933 75.8129 28.1378 73.896 29.8598 72.5231C31.5819 71.1502 33.719 70.4028 35.9213 70.4033C38.1236 70.4038 40.2605 71.1522 41.9819 72.5258C43.1225 73.436 44.0435 74.5912 44.6767 75.9059C45.3099 77.2206 45.6389 78.661 45.6394 80.1203V80.1203Z" fill="#EFB7B9"/>
<path opacity="0.1" d="M58.8569 153.057C56.4371 158.817 40.8696 158.936 40.8696 158.936V152.658L39.9261 152.597C40.3338 154.393 39.3437 158.779 39.3437 158.779C27.0406 160.526 24.0442 153.511 24.0442 153.511L24.4693 151.112L34.0556 151.965C34.0556 151.965 57.3514 150.398 58.4027 151.7C58.628 152.124 58.7815 152.582 58.8569 153.057V153.057Z" fill="black"/>
<path d="M40.8696 158.179V151.898L39.9261 151.839C40.3338 153.636 39.3437 158.022 39.3437 158.022C30.0866 159.326 26.0942 155.692 24.6877 153.799C24.4362 153.474 24.2204 153.122 24.0442 152.751L27.7977 131.613L28.6713 100.504L30.0254 95.0471L30.3399 92.4263V92.3972L30.3719 92.4118L31.3271 92.8224L37.0578 95.2976L43.6011 90.385L43.6972 90.3122L44.0204 90.0676L44.5591 90.5015L45.8957 91.5731L50.188 119.278C50.188 119.278 57.631 140.611 59.0113 149.222C59.0666 149.565 59.1132 149.886 59.1481 150.185C60.0538 158.033 40.8696 158.179 40.8696 158.179V158.179Z" fill="#E1E7EF"/>
<path d="M37.7772 96.4508C38.0827 96.4508 38.3304 96.2031 38.3304 95.8975C38.3304 95.5919 38.0827 95.3442 37.7772 95.3442C37.4716 95.3442 37.2239 95.5919 37.2239 95.8975C37.2239 96.2031 37.4716 96.4508 37.7772 96.4508Z" fill="#67647E"/>
<path d="M38.0335 101.497C38.3391 101.497 38.5868 101.249 38.5868 100.944C38.5868 100.638 38.3391 100.391 38.0335 100.391C37.7279 100.391 37.4802 100.638 37.4802 100.944C37.4802 101.249 37.7279 101.497 38.0335 101.497Z" fill="#67647E"/>
<path d="M38.5838 109.671C38.8894 109.671 39.1371 109.423 39.1371 109.118C39.1371 108.812 38.8894 108.564 38.5838 108.564C38.2782 108.564 38.0305 108.812 38.0305 109.118C38.0305 109.423 38.2782 109.671 38.5838 109.671Z" fill="#67647E"/>
<path d="M39.501 118.471C39.8066 118.471 40.0543 118.223 40.0543 117.918C40.0543 117.612 39.8066 117.365 39.501 117.365C39.1955 117.365 38.9478 117.612 38.9478 117.918C38.9478 118.223 39.1955 118.471 39.501 118.471Z" fill="#67647E"/>
<path d="M40.0513 126.738C40.3569 126.738 40.6046 126.49 40.6046 126.185C40.6046 125.879 40.3569 125.632 40.0513 125.632C39.7458 125.632 39.498 125.879 39.498 126.185C39.498 126.49 39.7458 126.738 40.0513 126.738Z" fill="#67647E"/>
<path d="M40.6048 135.541C40.9104 135.541 41.1581 135.293 41.1581 134.988C41.1581 134.682 40.9104 134.435 40.6048 134.435C40.2992 134.435 40.0515 134.682 40.0515 134.988C40.0515 135.293 40.2992 135.541 40.6048 135.541Z" fill="#67647E"/>
<path d="M40.3834 144.251C40.6889 144.251 40.9366 144.003 40.9366 143.698C40.9366 143.392 40.6889 143.144 40.3834 143.144C40.0778 143.144 39.8301 143.392 39.8301 143.698C39.8301 144.003 40.0778 144.251 40.3834 144.251Z" fill="#67647E"/>
<path opacity="0.1" d="M30.73 134.688C30.73 134.688 30.1127 142.783 28.9829 145.136C27.853 147.489 27.3405 154.096 27.3405 154.096L24.7197 153.805C24.4682 153.48 24.2524 153.128 24.0762 152.757L27.8297 131.619L28.7033 100.51L30.0574 95.0529L30.3719 92.4321C30.3821 92.4243 30.3941 92.4193 30.4068 92.4175C30.5538 92.3481 30.7148 92.3133 30.8773 92.3158C31.0399 92.3183 31.1997 92.3581 31.3445 92.4321L31.4726 92.4961C31.4347 92.6039 31.3969 92.7145 31.3619 92.8281C30.3369 96.0458 29.9526 101.98 29.9526 101.98C29.9526 101.98 31.426 112.833 31.592 117.883C31.758 122.932 30.73 134.688 30.73 134.688V134.688Z" fill="black"/>
<path opacity="0.1" d="M24.2451 152.544C24.2162 152.611 24.1832 152.676 24.1461 152.739C23.124 154.466 20.5324 155.564 19.7432 155.864L19.5103 155.445L20.0577 152.879L22.9522 151.7C23.4094 151.939 23.8424 152.222 24.2451 152.544V152.544Z" fill="black"/>
<path d="M17.2389 111.232L14.8424 112.67L12.6525 122.388C12.6525 122.388 9.91819 130.634 12.0236 136.522C14.1289 142.411 15.3549 145.768 15.3549 145.768C15.3549 145.768 16.1964 152.466 17.4573 153.004C18.7182 153.543 19.2686 153.846 19.2686 153.846L19.519 155.445C19.519 155.445 22.9435 154.28 24.1549 152.241C25.3663 150.203 23.2638 145.104 23.2638 145.104C23.2638 145.104 21.4555 140.771 21.9185 138.753C22.3815 136.735 20.9925 131.432 20.9925 131.307C20.9925 131.182 20.8672 128.36 21.8661 126.194C22.8649 124.027 22.2038 123.104 22.2038 123.104L21.5719 116.919L17.2389 111.232Z" fill="#67647E"/>
<path opacity="0.1" d="M59.055 151.237C59.055 151.237 52.704 153.636 50.6831 151.528C48.6622 149.42 48.8747 139.589 48.8747 139.589C48.8747 139.589 46.9412 121.415 45.7181 118.43C44.4951 115.446 45.1357 93.9027 45.1357 93.9027C45.1357 93.9027 44.3087 91.1217 43.6011 90.385C43.5566 90.3365 43.5057 90.2944 43.4497 90.2598L43.6972 90.3122L44.5708 90.5015L45.9074 91.5731L50.1997 119.278C50.1997 119.278 57.6427 140.611 59.023 149.222L59.055 151.237Z" fill="black"/>
<path opacity="0.1" d="M66.3757 151.869H66.3029C65.505 151.971 58.4405 152.824 58.4143 151.356C58.4144 151.186 58.4241 151.016 58.4434 150.847L64.9867 150.177L66.2825 151.51C66.3058 151.598 66.3262 151.674 66.3436 151.732L66.3757 151.869Z" fill="black"/>
<path d="M59.617 101.497L64.2616 103.917C64.2616 103.917 68.1142 113.922 68.7461 118.215C68.7461 118.215 71.6057 129.708 69.6197 134.434C67.6337 139.161 67.8113 148.546 67.8113 148.546C67.8113 148.546 66.6757 150.27 66.2127 149.807C65.7497 149.344 66.3816 151.615 66.3816 151.615C66.3816 151.615 58.4522 152.669 58.4144 151.108C58.3765 149.548 60.2344 142.105 60.2344 142.105C60.2344 142.105 60.7381 124.394 60.0218 121.619C59.3055 118.844 59.617 101.497 59.617 101.497V101.497Z" fill="#67647E"/>
<path opacity="0.1" d="M45.7618 120.361C45.7618 120.361 43.141 126.753 42.3111 127.175C41.4812 127.597 42.48 129.277 42.48 129.277C42.48 129.277 47.2352 122.632 45.7618 120.361V120.361ZM44.2068 97.9356C44.2359 97.8133 41.091 101.019 40.2523 101.497C39.4137 101.975 43.3099 101.471 44.2068 97.9356ZM35.4475 119.854C35.4475 119.854 30.6515 122.958 31.2805 124.181C31.9095 125.404 35.4475 119.854 35.4475 119.854ZM44.1631 165.121C44.1631 165.121 48.2399 167.742 54.5967 168.403L44.1631 165.121ZM34.3614 171.431C34.3614 171.431 38.147 176.183 39.8738 176.312C41.6006 176.44 34.3614 171.431 34.3614 171.431ZM39.6612 190.068C39.4923 190.152 37.5151 194.357 35.4971 194.485C33.479 194.613 39.6612 190.068 39.6612 190.068ZM57.2059 199.278C57.2059 199.278 60.9565 198.44 61.7893 201.13C61.7893 201.13 61.5389 200.289 57.2059 199.278ZM54.6812 214.677C54.6812 214.677 59.2239 213.751 60.1907 215.015C61.1574 216.279 54.6812 214.677 54.6812 214.677V214.677ZM41.8219 216.823C41.8219 216.864 37.1947 217.749 37.3782 218.337C37.5616 218.926 42.3111 218.841 42.48 217.915C42.5125 217.8 42.5211 217.68 42.5052 217.561C42.4893 217.443 42.4492 217.329 42.3876 217.227C42.3259 217.124 42.2438 217.036 42.1465 216.966C42.0492 216.897 41.9387 216.848 41.8219 216.823ZM53.167 220.818C53.167 220.818 60.7672 219.892 60.2897 221.491C59.8121 223.09 53.167 220.818 53.167 220.818ZM13.3689 127.175C13.4126 127.3 18.3746 127.973 19.0473 129.571C19.0473 129.571 14.1697 127.3 13.4126 127.3L13.3689 127.175ZM20.3518 140.174C20.3518 140.174 16.2285 141.479 16.5197 143.456C16.8109 145.433 16.1032 142.533 20.3518 140.174ZM18.4299 150.185C18.4299 150.185 19.9325 148.124 21.3623 148.502C22.7921 148.881 18.4299 150.185 18.4299 150.185ZM41.9791 72.5257C41.8338 72.6659 41.6714 72.7872 41.4957 72.8868C40.2989 73.5798 39.9786 74.634 39.4049 75.8774C38.8808 77.0043 38.3013 78.207 37.2384 78.836C35.8698 79.6601 34.0644 79.3572 32.6404 80.0794C32.0093 80.4101 31.4911 80.9213 31.1519 81.5479C30.8127 82.1744 30.6679 82.8878 30.736 83.597C30.8285 84.1439 30.9648 84.6824 31.1436 85.2074C31.4649 86.3434 31.6112 87.5217 31.5775 88.7017C31.5818 88.7375 31.5818 88.7737 31.5775 88.8095C30.3576 88.2009 29.2794 87.3424 28.4129 86.2899C27.5464 85.2375 26.911 84.0145 26.548 82.7004C26.1849 81.3864 26.1023 80.0106 26.3056 78.6626C26.5088 77.3145 26.9934 76.0243 27.7278 74.8757C28.4621 73.7272 29.4299 72.7459 30.5682 71.9957C31.7065 71.2455 32.9899 70.7431 34.335 70.5212C35.6801 70.2993 37.0568 70.3629 38.3758 70.7077C39.6947 71.0525 40.9264 71.6709 41.9908 72.5228L41.9791 72.5257Z" fill="black"/>
<path d="M41.7257 69.6021C40.657 67.357 38.3362 65.9389 35.9484 65.2342C34.1255 64.7071 32.1482 64.5353 30.3399 65.1148C29.309 65.4438 28.3685 65.9884 27.4046 66.4892C25.6021 67.4007 23.619 68.1199 22.265 69.6167C21.9505 69.9632 21.6593 70.4117 21.7524 70.8718C21.8223 71.2154 22.0902 71.4775 22.262 71.7832C22.6493 72.4646 22.5532 73.3237 22.2882 74.0662C22.0233 74.8088 21.636 75.5018 21.4496 76.2648C21.2632 77.0277 21.336 77.9217 21.901 78.4662C22.1739 78.6824 22.4577 78.8846 22.7513 79.0719C23.0599 79.3403 23.3312 79.6488 23.5579 79.9892L25.1624 82.1819C25.917 83.155 26.5891 84.1895 27.1716 85.2744C27.5735 86.0694 27.8822 86.9197 28.4151 87.6302C28.9479 88.3407 29.7837 88.9115 30.6689 88.8329C30.7373 88.8352 30.8053 88.821 30.8671 88.7916C30.9289 88.7622 30.9828 88.7185 31.0242 88.664C31.059 88.5946 31.0751 88.5173 31.0708 88.4397C31.107 87.2596 30.9607 86.0809 30.6369 84.9454C30.4581 84.4204 30.3218 83.8819 30.2292 83.335C30.1615 82.6259 30.3065 81.9126 30.6457 81.2861C30.9848 80.6597 31.5028 80.1484 32.1337 79.8174C33.5605 79.0981 35.366 79.401 36.7346 78.5769C37.7975 77.9333 38.3769 76.7423 38.9011 75.6154C39.4835 74.3836 39.7951 73.3178 40.9919 72.6248C42.1887 71.9317 42.3169 70.7815 41.7257 69.6021Z" fill="#585268"/>
<path opacity="0.1" d="M37.3725 228.445C37.3725 228.445 38.8518 230.338 38.4732 231.409C38.0946 232.481 37.3725 228.445 37.3725 228.445ZM57.4855 233.177C57.4855 233.177 57.8146 230.638 59.1395 230.614C60.4645 230.591 60.5286 230.478 61.539 230.865C62.5495 231.252 63.4959 231.858 63.1959 231.951C62.896 232.044 61.4488 230.495 59.9928 231.284C59.0677 231.787 58.2227 232.425 57.4855 233.177V233.177ZM32.9375 98.4687L37.0842 95.5567C37.0842 95.5567 30.9952 91.9575 30.2702 92.4642C29.5451 92.9709 29.0471 97.5135 29.0471 97.5135L32.9375 98.4687Z" fill="black"/>
<path d="M32.9201 98.2795L37.0842 95.2976C37.0842 95.2976 30.9952 91.7013 30.2702 92.2051C29.5451 92.7089 29.0471 97.5078 29.0471 97.5078L32.9201 98.2795Z" fill="#E1E7EF"/>
<path opacity="0.03" d="M32.9201 98.2795L37.0842 95.2976C37.0842 95.2976 30.9952 91.7013 30.2702 92.2051C29.5451 92.7089 29.0471 97.5078 29.0471 97.5078L32.9201 98.2795Z" fill="black"/>
<path d="M30.9572 92.24L30.832 92.176C30.6468 92.0815 30.4382 92.0428 30.2314 92.0645C30.0247 92.0862 29.8287 92.1674 29.6672 92.2983L17.1806 102.429C17.1806 102.429 14.4666 106.183 14.851 112.662L22.2125 123.095C22.2125 123.095 23.0541 119.56 24.0645 120.233C24.0645 120.233 25.4943 138.322 24.0645 140.931C22.6347 143.54 22.0028 153.298 22.0028 153.298L26.8396 153.846C26.8396 153.846 27.3434 147.242 28.4791 144.886C29.6148 142.53 30.2263 134.435 30.2263 134.435C30.2263 134.435 31.2484 122.673 31.0795 117.621C30.9106 112.569 29.44 101.721 29.44 101.721C29.44 101.721 29.8506 95.3617 30.9572 92.24V92.24Z" fill="#67647E"/>
<path opacity="0.1" d="M43.3942 96.6225L38.208 94.7006C38.208 94.7006 44.8153 87.4673 45.6365 91.48L43.3942 96.6225Z" fill="black"/>
<path d="M43.3942 96.3634L38.208 94.4444C38.208 94.4444 44.8153 87.2081 45.6365 91.2208L43.3942 96.3634Z" fill="#E1E7EF"/>
<path opacity="0.03" d="M43.3942 96.3634L38.208 94.4444C38.208 94.4444 44.8153 87.2081 45.6365 91.2208L43.3942 96.3634Z" fill="black"/>
<path opacity="0.1" d="M43.2283 90.2161C43.3023 90.2027 43.3786 90.2184 43.4413 90.2598L43.2283 90.2161Z" fill="black"/>
<path d="M43.7322 89.7093L57.5 92.6795C57.5 92.6795 61.2856 93.5211 64.02 103.026C66.7543 112.531 60.2752 124.181 60.2752 124.181L58.8454 122.967L59.5617 150.733C59.5617 150.733 53.2078 153.129 51.1898 151.024C49.1718 148.919 49.3785 139.085 49.3785 139.085C49.3785 139.085 47.445 120.905 46.2219 117.912C44.9989 114.918 45.6395 93.3843 45.6395 93.3843C45.6395 93.3843 44.5009 89.5433 43.7322 89.7093V89.7093Z" fill="#67647E"/>
<path opacity="0.1" d="M56.3207 107.403C56.1256 107.583 55.9013 115.984 56.7429 122.379C57.2593 126.273 58.0564 130.125 59.1278 133.904L57.8786 108.279C57.8786 108.279 56.9089 106.846 56.3207 107.403ZM54.6375 100.166C54.9753 100.376 56.4488 103.867 55.7732 105.3C55.0976 106.733 54.6375 100.166 54.6375 100.166ZM41.6443 69.6021C40.97 68.2709 39.9174 67.1687 38.6187 66.4338C39.5829 67.1214 40.3622 68.0367 40.8872 69.0983C41.4696 70.2777 41.3065 71.4599 40.1504 72.1297C38.9944 72.7994 38.6333 73.8769 38.0625 75.1203C37.5384 76.2472 36.956 77.4499 35.8931 78.0789C34.5245 78.9059 32.722 78.603 31.2951 79.3194C30.664 79.6509 30.1459 80.1627 29.8068 80.7897C29.4676 81.4166 29.3228 82.1304 29.3907 82.8399C29.4818 83.3871 29.6182 83.9257 29.7983 84.4503C30.1215 85.5858 30.2669 86.7646 30.2293 87.9447C30.2343 88.0219 30.2193 88.0992 30.1856 88.1689C30.1442 88.2234 30.0904 88.2672 30.0285 88.2965C29.9667 88.3259 29.8988 88.3401 29.8304 88.3378C29.4739 88.3657 29.1164 88.2994 28.7937 88.1456C29.029 88.3784 29.3097 88.5603 29.6183 88.68C29.9268 88.7997 30.2567 88.8547 30.5875 88.8415C30.6559 88.8438 30.7238 88.8297 30.7857 88.8003C30.8475 88.7709 30.9013 88.7272 30.9427 88.6726C30.9762 88.6028 30.9922 88.5258 30.9893 88.4484C31.0241 87.2683 30.8778 86.0898 30.5555 84.954C30.3753 84.4295 30.2389 83.8908 30.1478 83.3437C30.0801 82.6345 30.2251 81.9213 30.5642 81.2948C30.9034 80.6684 31.4214 80.157 32.0522 79.826C33.4791 79.1068 35.2816 79.4096 36.6502 78.5855C37.7131 77.942 38.2955 76.751 38.8197 75.6241C39.4021 74.3923 39.7107 73.3265 40.9075 72.6334C42.1044 71.9404 42.2325 70.7814 41.6443 69.6021V69.6021Z" fill="black"/>
<path opacity="0.1" d="M281.947 223.454C288.541 223.454 293.886 222.72 293.886 221.814C293.886 220.909 288.541 220.175 281.947 220.175C275.353 220.175 270.008 220.909 270.008 221.814C270.008 222.72 275.353 223.454 281.947 223.454Z" fill="#00C7FA"/>
<path opacity="0.1" d="M188.353 238.363C193.039 238.363 196.838 237.842 196.838 237.198C196.838 236.555 193.039 236.034 188.353 236.034C183.666 236.034 179.867 236.555 179.867 237.198C179.867 237.842 183.666 238.363 188.353 238.363Z" fill="#00C7FA"/>
<path opacity="0.1" d="M112.426 229.729C117.112 229.729 120.911 229.208 120.911 228.564C120.911 227.921 117.112 227.4 112.426 227.4C107.739 227.4 103.94 227.921 103.94 228.564C103.94 229.208 107.739 229.729 112.426 229.729Z" fill="#00C7FA"/>
<path d="M117.099 225.914C117.634 225.479 118.023 224.891 118.215 224.228C118.36 223.562 118.075 222.758 117.434 222.513C116.718 222.24 115.952 222.737 115.373 223.238C114.793 223.739 114.126 224.313 113.369 224.205C113.759 223.851 114.051 223.401 114.217 222.901C114.382 222.4 114.415 221.866 114.313 221.348C114.278 221.135 114.188 220.934 114.051 220.766C113.652 220.341 112.93 220.524 112.455 220.859C110.941 221.922 110.518 223.981 110.51 225.83C110.358 225.163 110.486 224.467 110.481 223.792C110.475 223.116 110.291 222.336 109.712 221.98C109.356 221.783 108.954 221.683 108.547 221.689C107.869 221.663 107.108 221.733 106.645 222.231C106.063 222.848 106.217 223.885 106.718 224.56C107.219 225.236 107.985 225.67 108.69 226.139C109.253 226.475 109.734 226.934 110.096 227.481C110.14 227.558 110.175 227.639 110.201 227.723H114.47C115.423 227.24 116.307 226.632 117.099 225.914V225.914ZM286.789 219.77C287.327 219.335 287.72 218.747 287.916 218.084C288.062 217.417 287.777 216.628 287.136 216.369C286.42 216.095 285.654 216.593 285.074 217.094C284.495 217.595 283.828 218.169 283.068 218.061C283.459 217.707 283.752 217.258 283.917 216.757C284.083 216.256 284.115 215.721 284.011 215.204C283.98 214.989 283.889 214.788 283.749 214.622C283.353 214.197 282.631 214.38 282.156 214.715C280.642 215.778 280.22 217.837 280.211 219.686C280.057 219.019 280.188 218.323 280.182 217.647C280.176 216.972 279.99 216.191 279.413 215.836C279.057 215.639 278.656 215.539 278.249 215.545C277.567 215.519 276.81 215.589 276.344 216.087C275.762 216.704 275.916 217.741 276.42 218.416C276.924 219.092 277.687 219.526 278.391 219.994C278.955 220.331 279.436 220.789 279.798 221.337C279.84 221.414 279.875 221.495 279.903 221.579H284.169C285.119 221.095 286 220.487 286.789 219.77V219.77ZM190.656 233.384C191.191 232.947 191.58 232.36 191.774 231.698C191.917 231.028 191.632 230.242 190.994 229.983C190.278 229.709 189.512 230.204 188.932 230.708C188.353 231.211 187.686 231.779 186.926 231.674C187.317 231.32 187.609 230.871 187.775 230.37C187.94 229.87 187.973 229.335 187.869 228.818C187.836 228.603 187.746 228.402 187.607 228.235C187.208 227.81 186.489 227.994 186.012 228.328C184.497 229.394 184.075 231.45 184.066 233.302C183.915 232.635 184.043 231.939 184.04 231.264C184.037 230.588 183.848 229.808 183.271 229.453C182.915 229.256 182.513 229.156 182.107 229.161C181.425 229.138 180.668 229.205 180.202 229.703C179.62 230.323 179.774 231.36 180.278 232.033C180.782 232.705 181.545 233.139 182.246 233.611C182.818 233.951 183.304 234.417 183.667 234.974C183.709 235.05 183.744 235.13 183.772 235.212H188.035C188.987 234.724 189.869 234.109 190.656 233.384V233.384Z" fill="#00C7FA"/>
<path d="M276.228 100.51C272.407 100.434 269.035 97.7261 267.125 94.4414C266.624 93.6569 266.31 92.7685 266.205 91.8439C266.218 91.6332 266.253 91.4243 266.309 91.2208C266.432 90.9127 266.529 90.5953 266.601 90.2715C266.617 90.1419 266.617 90.0108 266.601 89.8812V89.8638C266.694 89.1591 266.28 88.4806 265.762 87.9943C265.244 87.508 264.612 87.1556 264.079 86.6868C262.436 85.2454 261.939 82.9333 261.906 80.7318V80.6153C261.924 79.6748 262 78.7284 261.991 77.7849C262.004 77.2491 261.981 76.713 261.921 76.1804C261.764 74.8467 261.257 73.4897 260.209 72.6394C257.474 70.4234 252.876 72.7297 250.049 70.6331C249.359 70.1235 248.803 69.3634 247.97 69.1771C247.338 69.0256 246.683 69.2295 246.068 69.4333C243.983 70.1205 241.659 71.0262 240.844 73.0529C240.378 74.2177 240.509 75.5252 240.081 76.6958C239.79 77.4791 239.275 78.1518 238.89 78.8973C238.573 79.4562 238.419 80.0927 238.445 80.7347C238.412 81.0671 238.459 81.4024 238.582 81.7131C238.726 82.0843 238.957 82.415 239.257 82.677C239.147 82.908 239.011 83.125 238.849 83.3235C238.317 83.9758 237.498 84.4417 236.945 85.0707C235.92 86.2587 235.958 87.8749 236.464 89.2726C236.971 90.6704 237.88 91.9429 238.503 93.3028C238.774 93.8852 238.992 94.555 238.71 95.1432C238.515 95.5509 238.107 95.8596 237.789 96.2119C237.325 96.7335 237.033 97.3869 236.957 98.0814C230.716 99.5054 230.713 104.517 230.713 104.517L227.347 113.002C227.347 113.002 226.808 114.429 226.182 116.313L222.193 115.6L224.948 120.242C224.421 122.131 224.051 123.884 224.173 124.764C224.173 124.764 222.935 130.588 225.137 131.604L230 133.791C230.21 133.918 230.436 134.016 230.673 134.082L230.871 134.17C230.941 134.204 231.019 134.222 231.098 134.222C231.176 134.222 231.254 134.204 231.325 134.17H231.403C231.502 134.18 231.602 134.166 231.695 134.129C231.804 134.072 231.889 133.978 231.936 133.864C231.937 133.855 231.937 133.846 231.936 133.838L233.392 133.415L234.627 134.871C235.183 135.262 235.728 135.602 236.261 135.908L234.362 154.894C234.362 154.894 234.053 180.129 233.124 185.875C232.778 188.003 232.775 189.454 232.906 190.441L232.871 190.505C233.101 192.127 233.698 192.447 233.698 192.447V192.424L233.733 192.447C234.014 191.711 234.348 190.995 234.732 190.307V190.72C234.714 192.864 234.647 195.86 234.441 197.808C234.062 201.122 235.405 212.1 235.405 212.1L235.868 222.088C235.943 223.783 235.55 225.465 234.732 226.951C233.634 228.946 232.204 231.75 232.111 232.994C232.107 233.061 232.107 233.129 232.111 233.197L229.677 236.031C229.677 236.031 228.745 237.466 230.841 238.046C231.968 238.36 233.917 238.046 235.477 237.676C236.16 237.519 236.769 237.136 237.206 236.589C237.643 236.041 237.881 235.362 237.883 234.662C238.285 233.286 238.96 232.006 239.869 230.897L240.262 233.194L242.882 233.844L243.217 227.545C243.353 227.191 243.415 226.812 243.398 226.433C243.913 221.954 242.184 222.356 242.184 222.356C242.228 222.398 242.257 222.453 242.268 222.513C242.239 222.464 242.21 222.411 242.184 222.359C241.121 220.262 241.642 216.826 241.642 216.826C241.642 216.826 243.019 206.844 243.503 204.209C243.843 202.348 243.704 196.25 243.59 192.834C243.59 192.692 243.59 192.543 243.576 192.424C247.632 192.371 252.603 192.232 256.097 191.894V192.307L255.451 215.894C255.407 217.397 255.103 218.881 254.551 220.28C254.551 220.306 254.528 220.332 254.519 220.358C253.746 222.329 253.305 224.414 253.214 226.529L252.923 234.024V234.231C252.402 234.432 251.581 235.012 251.557 236.692C251.522 239.152 255.858 238.331 255.858 238.331C260.194 238.331 260.226 233.818 260.226 233.818C260.226 233.818 260.366 229.68 260.57 226.91C260.774 224.141 259.918 224.753 259.918 224.753L259.854 232.615V232.676V225.772L259.921 224.77V224.741L259.935 224.528L260.474 216.404C260.474 216.404 264.466 202.863 265.086 200.266C265.526 198.422 265.343 192.861 265.197 189.783C265.197 189.64 265.197 189.506 265.18 189.375C266.414 189.264 267.509 189.253 267.949 189.253H268.15C268.15 189.253 267.943 167.506 267.428 159.3C266.912 151.094 266.085 143.604 264.018 141.348C262.771 139.985 261.033 135.774 259.851 132.655C262.316 133.723 264.875 134.562 267.495 135.16C274.035 136.528 273.141 130.85 273.141 130.85L272.477 120.113H272.521C272.497 117.301 272.255 114.494 271.798 111.718C271.455 109.59 270.925 107.388 270.115 105.603C270.826 105.332 271.525 105.021 272.212 104.729C273.988 103.946 275.998 102.834 276.248 100.918H276.161C276.193 100.784 276.216 100.647 276.228 100.51V100.51ZM235.687 116.042C235.704 117.152 235.661 119.074 235.597 121.203L233.52 118.43L235.603 115.052L235.687 116.042ZM264.387 125.859L260.928 124.746C261.542 123.79 262.259 122.903 263.065 122.102L263.357 121.811L263.249 121.834L263.418 121.683L263.517 121.66L263.357 121.811L263.546 121.773C263.755 122.642 264.158 123.453 264.725 124.144C265.96 125.518 264.376 125.859 264.376 125.859H264.387Z" fill="url(#paint4_linear_57_538)"/>
<path d="M243.36 225.664L242.952 233.334L240.372 232.691L239.828 229.499L243.36 225.664Z" fill="#A27772"/>
<path opacity="0.1" d="M243.36 225.664L242.952 233.334L240.372 232.691L239.828 229.499L243.36 225.664Z" fill="black"/>
<path d="M252.83 234.353L256.767 235.169L259.679 232.589V225.323L259.743 224.33V224.301L259.757 224.091L260.287 216.025C260.287 216.025 264.224 202.581 264.836 200.009C265.27 198.178 265.089 192.654 264.947 189.602C264.888 188.35 264.836 187.514 264.836 187.514L256.147 185.409L255.963 192.106L255.328 215.519C255.285 217.01 254.984 218.483 254.437 219.872L254.408 219.951C253.651 221.912 253.225 223.985 253.147 226.086L252.856 233.526V233.733L252.83 234.353Z" fill="#CC818C"/>
<path opacity="0.1" d="M259.755 224.094V224.301L259.769 224.092L259.755 224.094ZM252.83 234.353L256.767 235.169L259.679 232.589V231.971C259.67 232.109 259.627 232.242 259.554 232.358C259.48 232.474 259.379 232.571 259.259 232.638L259.219 232.662C257.863 233.38 256.326 233.683 254.798 233.535L253.261 233.404C253.122 233.419 252.986 233.453 252.856 233.503V233.71L252.83 234.353Z" fill="black"/>
<path d="M259.228 232.865L259.268 232.842C259.397 232.77 259.504 232.665 259.578 232.538C259.652 232.411 259.691 232.267 259.691 232.12L259.755 224.298C259.755 224.298 260.605 223.695 260.401 226.444C260.197 229.193 260.06 233.302 260.06 233.302C260.06 233.302 260.028 237.784 255.751 237.784C255.751 237.784 251.473 238.596 251.505 236.153C251.537 233.71 253.273 233.608 253.273 233.608L254.807 233.742C256.335 233.887 257.871 233.582 259.228 232.865V232.865Z" fill="#B07473"/>
<path d="M232.327 232.691C232.429 234.455 237.621 233.436 237.621 233.436L241.115 226.648C241.115 226.648 244.027 224.406 242.571 222.438C242.492 222.331 242.42 222.219 242.356 222.103V222.085C242.323 222.033 242.297 221.98 242.268 221.925C241.22 219.846 241.735 216.436 241.735 216.436C241.735 216.436 243.092 206.535 243.57 203.914C243.905 202.065 243.768 196.011 243.654 192.622C243.611 191.215 243.57 190.266 243.57 190.266L234.944 187.96V190.531C234.927 192.657 234.863 195.633 234.653 197.566C234.281 200.86 235.606 211.756 235.606 211.756L236.063 221.675C236.128 223.354 235.732 225.018 234.918 226.488C233.835 228.468 232.426 231.255 232.327 232.49C232.321 232.557 232.321 232.624 232.327 232.691V232.691Z" fill="#CC818C"/>
<path opacity="0.1" d="M232.327 232.691C232.429 234.455 237.621 233.436 237.621 233.436L241.115 226.648C241.115 226.648 244.027 224.406 242.571 222.437C242.492 222.331 242.42 222.219 242.356 222.103C242.309 223.13 241.191 225.696 241.191 225.696C241.191 225.696 238.305 231.47 237.405 232.792C236.505 234.114 232.498 232.548 232.35 232.501C232.337 232.564 232.329 232.627 232.327 232.691V232.691Z" fill="black"/>
<path d="M242.262 221.919C242.262 221.919 243.969 221.523 243.462 225.97C243.481 226.475 243.365 226.977 243.127 227.423C242.89 227.87 242.538 228.245 242.108 228.512C240.888 229.281 239.001 230.932 238.049 234.144C238.049 234.837 237.816 235.511 237.385 236.055C236.955 236.599 236.354 236.981 235.678 237.14C234.138 237.498 232.216 237.816 231.104 237.504C229.033 236.922 229.939 235.504 229.939 235.504L232.315 232.685C232.315 232.685 236.456 234.315 237.373 232.991C238.29 231.666 241.159 225.894 241.159 225.894C241.159 225.894 242.781 222.292 242.262 221.919V221.919Z" fill="#B07473"/>
<path opacity="0.1" d="M256.158 186.215L255.975 192.913C258.304 192.689 259.947 192.374 260.232 191.934C260.841 190.988 263.066 190.586 264.958 190.423C264.9 189.171 264.848 188.335 264.848 188.335L256.158 186.215ZM234.936 191.335C235.159 190.883 235.485 190.49 235.888 190.187C236.805 189.678 236.706 193.446 236.706 193.446C236.706 193.446 239.749 193.475 243.648 193.425C243.605 192.016 243.564 191.07 243.564 191.07L234.939 188.763C234.939 188.763 234.95 189.838 234.936 191.335Z" fill="black"/>
<path d="M233.955 192.232C233.955 192.232 234.974 189.474 235.888 188.967C236.802 188.461 236.706 192.226 236.706 192.226C236.706 192.226 259.111 192.43 260.232 190.697C261.353 188.964 267.87 189.069 267.87 189.069C267.87 189.069 267.667 167.477 267.157 159.329C266.647 151.181 265.832 143.747 263.797 141.508C262.477 140.052 260.593 135.366 259.446 132.239C258.814 130.53 258.398 129.286 258.398 129.286L237.012 130.509L236.837 132.239L234.566 154.952C234.566 154.952 234.275 179.995 233.343 185.709C232.411 191.422 233.955 192.232 233.955 192.232V192.232Z" fill="#444053"/>
<g opacity="0.1">
<path opacity="0.1" d="M258.505 190.712C259.624 188.982 266.144 189.084 266.144 189.084C266.144 189.084 265.94 167.491 265.43 159.344C264.921 151.196 264.105 143.762 262.07 141.522C260.751 140.066 258.867 135.381 257.719 132.254C257.189 130.818 256.811 129.711 256.703 129.394L258.363 129.301C258.363 129.301 258.779 130.544 259.411 132.254C260.576 135.381 262.442 140.072 263.762 141.522C265.8 143.762 266.612 151.196 267.122 159.344C267.632 167.491 267.824 189.069 267.824 189.069C267.824 189.069 261.307 188.964 260.189 190.712C259.231 192.191 242.743 192.258 237.956 192.246C244.094 192.217 257.632 192.034 258.505 190.712ZM234.153 188.964C234.566 188.734 234.773 189.372 234.875 190.129C234.505 190.801 234.183 191.498 233.911 192.214C233.911 192.214 233.328 191.897 233.095 190.286C233.419 189.713 233.794 189.165 234.153 188.964V188.964Z" fill="black"/>
</g>
<path d="M240.562 77.0453C239.082 79.0662 240.579 81.9345 238.992 83.8972C238.468 84.5466 237.661 85.0096 237.114 85.6444C236.1 86.8266 236.141 88.4282 236.639 89.8173C237.137 91.2063 238.037 92.4672 238.654 93.8183C238.922 94.4007 239.138 95.0617 238.861 95.6441C238.669 96.0489 238.279 96.3547 237.952 96.707C236.933 97.8456 236.904 99.4297 237.452 100.769C237.999 102.109 239.05 103.271 240.072 104.4C240.48 104.849 240.996 105.341 241.674 105.329C242.031 105.3 242.377 105.187 242.682 104.997C245.097 103.726 246.929 101.572 247.798 98.9842C248.532 96.5496 248.377 93.9333 247.361 91.6023C246.488 89.5435 245.066 87.5692 245.055 85.391C245.055 83.6642 245.943 82.0161 246.1 80.2951C246.292 78.2072 245.055 74.8875 242.533 73.9761C242.699 75.3243 241.325 76.0203 240.562 77.0453V77.0453Z" fill="#585268"/>
<path opacity="0.1" d="M240.562 77.0453C239.082 79.0662 240.579 81.9345 238.992 83.8972C238.468 84.5466 237.661 85.0096 237.114 85.6444C236.1 86.8266 236.141 88.4282 236.639 89.8173C237.137 91.2063 238.037 92.4672 238.654 93.8183C238.922 94.4007 239.138 95.0617 238.861 95.6441C238.669 96.0489 238.279 96.3547 237.952 96.707C236.933 97.8456 236.904 99.4297 237.452 100.769C237.999 102.109 239.05 103.271 240.072 104.4C240.48 104.849 240.996 105.341 241.674 105.329C242.031 105.3 242.377 105.187 242.682 104.997C245.097 103.726 246.929 101.572 247.798 98.9842C248.532 96.5496 248.377 93.9333 247.361 91.6023C246.488 89.5435 245.066 87.5692 245.055 85.391C245.055 83.6642 245.943 82.0161 246.1 80.2951C246.292 78.2072 245.055 74.8875 242.533 73.9761C242.699 75.3243 241.325 76.0203 240.562 77.0453V77.0453ZM256.982 150.462C254.018 150.619 251.228 151.892 248.634 153.333C246.039 154.775 243.529 156.42 240.736 157.433L256.982 150.462ZM255.139 157.445C252.206 157.727 249.473 159.055 247.44 161.187C246.72 161.95 246.1 162.806 245.349 163.537C244.197 164.656 242.776 165.459 241.223 165.867L255.139 157.445ZM255.748 162.757C253.383 163.413 251.244 164.703 249.56 166.487C249.105 166.976 248.686 167.503 248.238 167.989C245.783 170.61 242.318 172.023 238.972 173.345" fill="black"/>
<path d="M255.494 89.0571C255.561 91.4257 255.765 93.7884 256.106 96.1332C256.38 97.8047 256.77 99.2927 257.329 99.9537C258.957 101.89 249.385 104.488 249.385 104.488L243.733 100.12C243.733 100.12 248.214 95.9934 246.127 91.9662C244.039 87.9389 255.494 89.0571 255.494 89.0571V89.0571Z" fill="#CC818C"/>
<path opacity="0.1" d="M236.837 132.239H259.446C258.814 130.53 258.398 129.286 258.398 129.286L237.012 130.509L236.837 132.239Z" fill="black"/>
<path d="M235.381 131.831H259.551C258.872 129.403 259.551 127.152 260.521 125.425C261.198 124.212 262.051 123.105 263.051 122.14L263.217 121.992L271.662 120.119L272.116 120.02C272.116 120.02 272.183 104.677 266.752 102.572C261.321 100.466 258.06 97.6214 258.06 97.6214L250.594 99.9277L245.093 97.1467C243.328 99.0483 238.643 98.3115 238.643 98.3115C230.97 99.1851 230.97 104.965 230.97 104.965C230.97 104.965 235.451 115.422 235.792 115.422C236.133 115.422 235.381 131.831 235.381 131.831V131.831Z" fill="#67647E"/>
<path opacity="0.1" d="M243.727 122.076C243.727 122.076 238.797 120.984 237.12 119.074L243.727 122.076ZM268.581 116.351L262.873 121.036C262.915 121.407 262.978 121.774 263.063 122.137L263.229 121.989L271.673 120.116L268.581 116.351ZM253.101 130.203C253.101 130.203 254.353 130.908 256.269 131.831H259.554C258.875 129.403 259.554 127.152 260.523 125.425L254.72 123.547C256.7 125.381 253.101 130.203 253.101 130.203V130.203Z" fill="black"/>
<path d="M234.362 103.113L230.967 104.945L227.638 113.363C227.638 113.363 224.176 122.597 224.514 125.043C224.514 125.043 223.294 130.812 225.466 131.831L231.133 134.394C231.233 134.439 231.344 134.452 231.452 134.431C231.559 134.409 231.657 134.355 231.732 134.275C231.807 134.195 231.855 134.093 231.869 133.984C231.883 133.876 231.863 133.765 231.811 133.669C231.005 132.14 230.119 129.752 231.52 128.427L229.889 125.035L235.792 115.402L237.758 112.088L234.362 103.113Z" fill="#67647E"/>
<path opacity="0.1" d="M241.907 120.148C242.198 121.348 243.194 123.191 246.479 123.887L250.095 126.84L253.931 128.587L255.491 129.295L256.155 124.508L254.65 123.683L252.903 122.725C252.903 122.725 248.945 115.55 242.676 118.582C242.388 118.716 242.154 118.944 242.015 119.229C241.875 119.514 241.837 119.839 241.907 120.148V120.148Z" fill="black"/>
<path d="M242.114 119.741C242.405 120.941 243.401 122.784 246.686 123.48L250.302 126.435L254.137 128.183L255.698 128.89L256.362 124.103L254.857 123.282L253.11 122.321C253.11 122.321 249.152 115.149 242.883 118.177C242.595 118.311 242.362 118.539 242.223 118.823C242.083 119.108 242.044 119.432 242.114 119.741V119.741Z" fill="#CC818C"/>
<path opacity="0.1" d="M249.178 95.2714C254.016 95.2714 257.937 91.3498 257.937 86.5122C257.937 81.6746 254.016 77.7529 249.178 77.7529C244.341 77.7529 240.419 81.6746 240.419 86.5122C240.419 91.3498 244.341 95.2714 249.178 95.2714Z" fill="black"/>
<path d="M249.178 95.0676C254.016 95.0676 257.937 91.1459 257.937 86.3083C257.937 81.4707 254.016 77.5491 249.178 77.5491C244.341 77.5491 240.419 81.4707 240.419 86.3083C240.419 91.1459 244.341 95.0676 249.178 95.0676Z" fill="#CC818C"/>
<path opacity="0.1" d="M254.603 105.021L251.982 99.9013C251.982 99.9013 255.838 98.3463 256.117 96.5409C256.397 94.7355 259.81 98.655 259.07 99.9538C258.331 101.252 254.603 105.021 254.603 105.021Z" fill="black"/>
<path d="M254.603 104.613L251.982 99.4936C251.982 99.4936 255.838 97.9386 256.117 96.1332C256.397 94.3278 259.81 98.2502 259.07 99.546C258.331 100.842 254.603 104.613 254.603 104.613Z" fill="#67647E"/>
<path d="M233.052 117.833L247.612 137.399C247.612 137.399 242.248 140.311 234.846 135.09L231.642 131.29L222.542 115.943L233.052 117.833Z" fill="#F6F8FB"/>
<path d="M230.186 128.471L231.511 128.436C231.511 128.436 239.607 120.574 241.593 124.551C243.579 128.529 236.552 132.239 236.552 132.239L234.415 133.404L231.613 134.219L229.831 131.825L230.186 128.471Z" fill="#CC818C"/>
<path opacity="0.1" d="M232.14 132.717C232.263 133.168 232.379 133.666 232.175 134.085C232.128 134.198 232.043 134.291 231.934 134.347C231.842 134.386 231.741 134.4 231.642 134.388C230.941 134.328 230.289 134.004 229.817 133.482C229.351 132.964 228.952 132.389 228.631 131.77C228.27 131.144 227.895 130.445 228.026 129.732C228.168 128.951 228.864 128.41 229.528 127.985C230.871 127.096 230.903 128.13 231.209 129.272L232.14 132.717Z" fill="black"/>
<path d="M231.936 132.717C232.059 133.168 232.175 133.666 231.971 134.085C231.924 134.198 231.839 134.291 231.73 134.347C231.638 134.386 231.537 134.4 231.439 134.388C230.737 134.328 230.085 134.004 229.613 133.482C229.147 132.964 228.749 132.389 228.428 131.77C228.066 131.144 227.691 130.445 227.822 129.732C227.965 128.951 228.661 128.41 229.324 127.985C230.667 127.096 230.699 128.13 231.005 129.272L231.936 132.717Z" fill="#67647E"/>
<path opacity="0.1" d="M235.789 115.402L236.468 114.257L235.874 116.383L235.789 115.402V115.402ZM254.137 128.171L255.698 128.878L256.362 124.091L254.857 123.27C255.885 124.452 254.985 126.648 254.137 128.171ZM260.401 122.615C260.401 122.615 255.361 122.92 253.223 121.546Z" fill="black"/>
<g opacity="0.1">
<path opacity="0.1" d="M259.775 125.83C260.454 124.617 261.308 123.51 262.308 122.545C262.548 122.394 262.797 122.258 263.054 122.137L270.916 120.524L271.371 120.425C271.371 120.425 271.44 105.082 266.007 102.976C262.962 101.815 260.107 100.206 257.536 98.2036L258.133 98.0201C258.133 98.0201 261.391 100.871 266.822 102.97C272.253 105.07 272.192 120.425 272.192 120.425H271.376L263.328 121.965L262.873 122.399C261.864 123.408 260.999 124.552 260.302 125.798C259.24 127.773 258.998 130.087 259.629 132.239H258.797C258.127 129.81 258.817 127.559 259.775 125.83ZM238.317 98.751C238.448 98.7335 238.573 98.7132 238.707 98.6986C239.258 98.7765 239.813 98.8222 240.37 98.8355C239.684 98.8543 238.998 98.8261 238.317 98.751V98.751ZM249.842 100.326L244.869 97.8192C244.972 97.7379 245.069 97.6493 245.16 97.5542L250.349 100.175L249.842 100.326Z" fill="black"/>
</g>
<path d="M268.785 115.943L272.113 120.02L272.791 131.086C272.791 131.086 273.665 136.72 267.224 135.363C260.782 134.006 253.304 129.796 253.304 129.796C253.304 129.796 256.904 124.973 254.935 123.142L264.169 126.129C264.169 126.129 265.73 125.789 264.507 124.432C263.284 123.075 263.068 120.629 263.068 120.629L268.785 115.943Z" fill="#67647E"/>
<path opacity="0.1" d="M270.278 127.623L272.113 129.726C271.641 129.582 271.22 129.308 270.895 128.937C270.571 128.565 270.358 128.11 270.278 127.623V127.623ZM267.157 127.283L270.008 130.949L268.584 131.29L267.157 127.283ZM238.721 82.2868C238.407 81.521 238.646 80.6357 239.013 79.899C239.379 79.1623 239.907 78.4925 240.177 77.7121C240.6 76.5473 240.469 75.2428 240.929 74.0954C241.735 72.0862 244.027 71.1835 246.083 70.505C246.689 70.304 247.335 70.1002 247.958 70.2487C248.779 70.4467 249.33 71.2009 249.997 71.7047C252.786 73.7839 257.32 71.495 260.017 73.6965C261.05 74.5381 261.551 75.8892 261.706 77.2113C261.86 78.5333 261.706 79.8757 261.691 81.2094C261.647 83.539 262.081 86.0957 263.831 87.642C264.358 88.1079 264.979 88.4602 265.491 88.9407C266.004 89.4212 266.408 90.1055 266.318 90.7956C266.246 91.1163 266.148 91.4307 266.027 91.7362C265.678 92.9534 266.196 94.2434 266.828 95.3413C268.715 98.6027 272.037 101.29 275.808 101.366C275.555 103.268 273.581 104.371 271.828 105.152C269.594 106.145 267.247 107.12 264.807 106.995C262.367 106.87 259.822 105.309 259.388 102.918C259.239 102.094 259.26 101.084 258.543 100.65C258.112 100.388 257.553 100.455 257.087 100.257C256.415 99.9655 256.08 99.2258 255.858 98.527C255.404 97.0904 255.159 95.5956 255.133 94.0891C255.104 92.3041 255.343 90.3559 254.33 88.8854C253.392 87.5255 251.726 86.847 250.646 85.5832C249.65 84.4184 248.564 83.0265 246.93 82.8052C244.735 82.4878 240.058 85.5599 238.721 82.2868V82.2868Z" fill="black"/>
<path d="M238.721 81.8791C238.407 81.1133 238.646 80.228 239.013 79.4913C239.379 78.7546 239.907 78.0848 240.177 77.3044C240.6 76.1396 240.469 74.835 240.929 73.6877C241.735 71.6785 244.027 70.7757 246.083 70.0972C246.689 69.8963 247.335 69.6925 247.958 69.841C248.779 70.039 249.33 70.7932 249.997 71.297C252.786 73.3791 257.32 71.0873 260.017 73.2888C261.05 74.1333 261.551 75.4815 261.706 76.8035C261.86 78.1256 261.706 79.468 261.691 80.8017C261.647 83.1313 262.081 85.688 263.831 87.2343C264.358 87.7002 264.979 88.0525 265.491 88.533C266.004 89.0135 266.408 89.6978 266.318 90.3879C266.245 90.7094 266.148 91.0248 266.027 91.3314C265.678 92.5457 266.196 93.8386 266.828 94.9335C268.715 98.195 272.037 100.883 275.808 100.958C275.555 102.86 273.581 103.964 271.828 104.744C269.594 105.74 267.247 106.713 264.807 106.587C262.367 106.462 259.822 104.901 259.388 102.496C259.239 101.672 259.26 100.661 258.543 100.228C258.112 99.9654 257.553 100.032 257.087 99.8344C256.415 99.5432 256.08 98.8036 255.858 98.1047C255.404 96.6682 255.159 95.1734 255.133 93.6668C255.104 91.8818 255.343 89.9337 254.33 88.4631C253.392 87.1032 251.726 86.4247 250.646 85.1609C249.65 83.9961 248.564 82.6042 246.93 82.3829C244.735 82.0946 240.058 85.1522 238.721 81.8791V81.8791Z" fill="#585268"/>
<path opacity="0.1" d="M244.93 104.386L249.95 100.309C249.95 100.309 246.514 98.4453 246.103 96.8554C245.693 95.2654 242.944 97.6096 243.223 99.0364C243.503 100.463 244.93 104.386 244.93 104.386Z" fill="black"/>
<path d="M245.134 103.774L250.154 99.6976C250.154 99.6976 246.718 97.834 246.307 96.244C245.896 94.6541 243.148 96.9982 243.427 98.4251C243.707 99.852 245.134 103.774 245.134 103.774Z" fill="#67647E"/>
<path opacity="0.1" d="M250.349 103.509C250.569 103.509 250.748 103.331 250.748 103.11C250.748 102.89 250.569 102.711 250.349 102.711C250.129 102.711 249.95 102.89 249.95 103.11C249.95 103.331 250.129 103.509 250.349 103.509Z" fill="black"/>
<path opacity="0.1" d="M250.349 105.728C250.569 105.728 250.748 105.55 250.748 105.329C250.748 105.109 250.569 104.93 250.349 104.93C250.129 104.93 249.95 105.109 249.95 105.329C249.95 105.55 250.129 105.728 250.349 105.728Z" fill="black"/>
<path opacity="0.1" d="M250.349 107.944C250.569 107.944 250.748 107.766 250.748 107.545C250.748 107.325 250.569 107.146 250.349 107.146C250.129 107.146 249.95 107.325 249.95 107.545C249.95 107.766 250.129 107.944 250.349 107.944Z" fill="black"/>
<g opacity="0.1">
<path opacity="0.1" d="M240.742 76.2212C241.138 75.1292 241.054 73.9062 241.424 72.8083C241.254 73.0518 241.112 73.3136 241.001 73.5888C240.541 74.7361 240.669 76.0465 240.25 77.2084C240.25 77.2287 240.23 77.252 240.221 77.2753C240.427 76.9406 240.601 76.5877 240.742 76.2212V76.2212ZM272.422 103.661C270.188 104.657 267.841 105.629 265.398 105.504C262.955 105.379 260.416 103.818 259.982 101.413C259.833 100.589 259.854 99.5782 259.137 99.1443C258.706 98.8822 258.147 98.9492 257.681 98.7512C257.006 98.46 256.674 97.7204 256.452 97.0215C255.997 95.5831 255.753 94.0863 255.727 92.5778C255.698 90.7928 255.934 88.8446 254.924 87.3741C253.986 86.0142 252.32 85.3357 251.24 84.0719C250.241 82.9071 249.158 81.5152 247.521 81.2939C245.279 81.0027 240.6 84.0602 239.266 80.7872C239.052 80.1685 239.082 79.4916 239.35 78.8944C239.254 79.0575 239.161 79.2205 239.077 79.3865C238.698 80.1232 238.459 81.0085 238.785 81.7743C240.122 85.0474 244.799 81.9753 247.044 82.281C248.677 82.5023 249.764 83.903 250.762 85.0591C251.843 86.3112 253.506 87.0014 254.443 88.3642C255.457 89.8202 255.221 91.7828 255.25 93.565C255.274 95.0724 255.517 96.5684 255.972 98.0057C256.193 98.7017 256.528 99.4617 257.201 99.7354C257.667 99.9306 258.226 99.8665 258.657 100.129C259.37 100.56 259.353 101.585 259.498 102.394C259.932 104.799 262.477 106.363 264.918 106.488C267.358 106.614 269.708 105.638 271.938 104.642C273.546 103.929 275.337 102.936 275.817 101.311C275.037 102.38 273.674 103.105 272.422 103.661Z" fill="black"/>
</g>
</g>
<defs>
<linearGradient id="paint0_linear_57_538" x1="102.627" y1="92.3536" x2="102.627" y2="39.5186" gradientUnits="userSpaceOnUse">
<stop stop-color="#808080" stop-opacity="0.25"/>
<stop offset="0.54" stop-color="#808080" stop-opacity="0.12"/>
<stop offset="1" stop-color="#808080" stop-opacity="0.1"/>
</linearGradient>
<linearGradient id="paint1_linear_57_538" x1="165.933" y1="160.593" x2="165.933" y2="110.894" gradientUnits="userSpaceOnUse">
<stop stop-color="#808080" stop-opacity="0.25"/>
<stop offset="0.54" stop-color="#808080" stop-opacity="0.12"/>
<stop offset="1" stop-color="#808080" stop-opacity="0.1"/>
</linearGradient>
<linearGradient id="paint2_linear_57_538" x1="24.2366" y1="83.9002" x2="24.2366" y2="83.8477" gradientUnits="userSpaceOnUse">
<stop stop-color="#808080" stop-opacity="0.25"/>
<stop offset="0.54" stop-color="#808080" stop-opacity="0.12"/>
<stop offset="1" stop-color="#808080" stop-opacity="0.1"/>
</linearGradient>
<linearGradient id="paint3_linear_57_538" x1="40.6922" y1="239.56" x2="40.6922" y2="63.8249" gradientUnits="userSpaceOnUse">
<stop stop-color="#808080" stop-opacity="0.25"/>
<stop offset="0.54" stop-color="#808080" stop-opacity="0.12"/>
<stop offset="1" stop-color="#808080" stop-opacity="0.1"/>
</linearGradient>
<linearGradient id="paint4_linear_57_538" x1="249.202" y1="238.451" x2="249.202" y2="69.113" gradientUnits="userSpaceOnUse">
<stop stop-color="#808080" stop-opacity="0.25"/>
<stop offset="0.54" stop-color="#808080" stop-opacity="0.12"/>
<stop offset="1" stop-color="#808080" stop-opacity="0.1"/>
</linearGradient>
<clipPath id="clip0_57_538">
<rect width="298.03" height="243.977" fill="white"/>
</clipPath>
</defs>
</svg>
